<svg width="380" height="26" viewBox="0 0 380 26" fill="none" xmlns="http://www.w3.org/2000/svg">
<path d="M0.0863509 1.09091H3.32712L8.26675 9.68679H8.46987L13.4095 1.09091H16.6503L9.79019 12.5767V20H6.94644V12.5767L0.0863509 1.09091ZM24.8402 20.2862C23.5106 20.2862 22.3504 19.9815 21.3594 19.3722C20.3684 18.7628 19.5989 17.9103 19.0511 16.8146C18.5033 15.719 18.2294 14.4387 18.2294 12.9737C18.2294 11.5026 18.5033 10.2161 19.0511 9.11435C19.5989 8.01255 20.3684 7.15696 21.3594 6.54759C22.3504 5.93821 23.5106 5.63352 24.8402 5.63352C26.1697 5.63352 27.33 5.93821 28.321 6.54759C29.312 7.15696 30.0814 8.01255 30.6292 9.11435C31.1771 10.2161 31.451 11.5026 31.451 12.9737C31.451 14.4387 31.1771 15.719 30.6292 16.8146C30.0814 17.9103 29.312 18.7628 28.321 19.3722C27.33 19.9815 26.1697 20.2862 24.8402 20.2862ZM24.8494 17.9688C25.7112 17.9688 26.4252 17.741 26.9915 17.2855C27.5577 16.83 27.9763 16.2237 28.2471 15.4666C28.5241 14.7095 28.6626 13.8755 28.6626 12.9645C28.6626 12.0597 28.5241 11.2287 28.2471 10.4716C27.9763 9.70833 27.5577 9.09588 26.9915 8.63423C26.4252 8.17258 25.7112 7.94176 24.8494 7.94176C23.9815 7.94176 23.2613 8.17258 22.6889 8.63423C22.1226 9.09588 21.701 9.70833 21.424 10.4716C21.1532 11.2287 21.0177 12.0597 21.0177 12.9645C21.0177 13.8755 21.1532 14.7095 21.424 15.4666C21.701 16.2237 22.1226 16.83 22.6889 17.2855C23.2613 17.741 23.9815 17.9688 24.8494 17.9688ZM45.5961 14.1186V5.81818H48.366V20H45.6515V17.544H45.5038C45.1776 18.3011 44.6544 18.9321 43.9342 19.4368C43.2202 19.9354 42.3307 20.1847 41.2659 20.1847C40.3549 20.1847 39.5486 19.9846 38.8468 19.5845C38.1513 19.1783 37.6035 18.5781 37.2034 17.7841C36.8094 16.9901 36.6125 16.0083 36.6125 14.8388V5.81818H39.3731V14.5064C39.3731 15.4728 39.6409 16.2422 40.1764 16.8146C40.7119 17.3871 41.4075 17.6733 42.263 17.6733C42.7801 17.6733 43.2941 17.544 43.8049 17.2855C44.322 17.027 44.7498 16.6361 45.0883 16.1129C45.433 15.5897 45.6023 14.925 45.5961 14.1186ZM65.8769 11.5795V20H63.1162V1.09091H65.8399V8.12642H66.0154C66.3478 7.36316 66.8556 6.75686 67.5388 6.30753C68.222 5.85819 69.1146 5.63352 70.2164 5.63352C71.1889 5.63352 72.0383 5.83357 72.7647 6.23366C73.4971 6.63376 74.0634 7.23082 74.4635 8.02486C74.8698 8.81274 75.0729 9.79759 75.0729 10.9794V20H72.3122V11.3118C72.3122 10.2715 72.0445 9.4652 71.509 8.89276C70.9735 8.31416 70.2287 8.02486 69.2746 8.02486C68.6221 8.02486 68.0374 8.16335 67.5203 8.44034C67.0095 8.71733 66.6063 9.12358 66.3108 9.65909C66.0215 10.1884 65.8769 10.8286 65.8769 11.5795ZM84.964 20.3139C84.0653 20.3139 83.2528 20.1477 82.5265 19.8153C81.8002 19.4768 81.2246 18.9875 80.7999 18.3473C80.3814 17.7071 80.1721 16.9223 80.1721 15.9929C80.1721 15.1927 80.326 14.5341 80.6337 14.017C80.9415 13.5 81.357 13.0907 81.8802 12.7891C82.4034 12.4875 82.9881 12.2597 83.6344 12.1058C84.2807 11.9519 84.9394 11.835 85.6103 11.755C86.4597 11.6565 87.1491 11.5765 87.6785 11.5149C88.2078 11.4472 88.5925 11.3395 88.8326 11.1918C89.0726 11.044 89.1927 10.804 89.1927 10.4716V10.407C89.1927 9.60062 88.9649 8.97585 88.5094 8.53267C88.0601 8.08949 87.3892 7.8679 86.4967 7.8679C85.5672 7.8679 84.8347 8.0741 84.2992 8.48651C83.7699 8.89276 83.4036 9.34517 83.2005 9.84375L80.606 9.25284C80.9138 8.3911 81.3631 7.69555 81.954 7.16619C82.5511 6.63068 83.2374 6.2429 84.013 6.00284C84.7886 5.75663 85.6041 5.63352 86.4597 5.63352C87.026 5.63352 87.6261 5.70123 88.2601 5.83665C88.9003 5.96591 89.4974 6.20597 90.0513 6.55682C90.6115 6.90767 91.07 7.40933 91.427 8.06179C91.7841 8.7081 91.9626 9.5483 91.9626 10.5824V20H89.2665V18.0611H89.1557C88.9772 18.4181 88.7095 18.7689 88.3525 19.1136C87.9955 19.4583 87.5369 19.7446 86.9768 19.9723C86.4166 20.2 85.7457 20.3139 84.964 20.3139ZM85.5641 18.098C86.3274 18.098 86.9798 17.9472 87.5215 17.6456C88.0693 17.344 88.4848 16.95 88.768 16.4638C89.0573 15.9714 89.2019 15.4451 89.2019 14.8849V13.0568C89.1034 13.1553 88.9126 13.2476 88.6295 13.3338C88.3525 13.4138 88.0355 13.4846 87.6785 13.5462C87.3215 13.6016 86.9737 13.6539 86.6351 13.7031C86.2966 13.7462 86.0135 13.7831 85.7857 13.8139C85.2502 13.8816 84.7609 13.9955 84.3177 14.1555C83.8806 14.3156 83.5298 14.5464 83.2651 14.848C83.0066 15.1435 82.8773 15.5374 82.8773 16.0298C82.8773 16.7131 83.1297 17.2301 83.6344 17.581C84.1392 17.9257 84.7824 18.098 85.5641 18.098ZM109.344 5.81818L104.201 20H101.247L96.0946 5.81818H99.0584L102.65 16.7315H102.798L106.38 5.81818H109.344ZM119.648 20.2862C118.251 20.2862 117.048 19.9877 116.038 19.3906C115.035 18.7874 114.259 17.9411 113.711 16.8516C113.17 15.7559 112.899 14.4725 112.899 13.0014C112.899 11.5488 113.17 10.2685 113.711 9.16051C114.259 8.05256 115.022 7.18774 116.001 6.56605C116.986 5.94437 118.137 5.63352 119.454 5.63352C120.254 5.63352 121.03 5.76586 121.781 6.03054C122.532 6.29522 123.206 6.7107 123.803 7.27699C124.4 7.84328 124.871 8.57883 125.216 9.48366C125.56 10.3823 125.733 11.4749 125.733 12.7614V13.7401H114.459V11.6719H123.027C123.027 10.9455 122.88 10.3023 122.584 9.74219C122.289 9.1759 121.873 8.72964 121.338 8.40341C120.808 8.07718 120.187 7.91406 119.473 7.91406C118.697 7.91406 118.02 8.10488 117.441 8.48651C116.869 8.86198 116.426 9.3544 116.112 9.96378C115.804 10.567 115.65 11.2225 115.65 11.9304V13.5462C115.65 14.4941 115.816 15.3004 116.149 15.9652C116.487 16.63 116.958 17.1378 117.561 17.4886C118.165 17.8333 118.869 18.0057 119.676 18.0057C120.199 18.0057 120.676 17.9318 121.107 17.7841C121.538 17.6302 121.91 17.4025 122.224 17.1009C122.538 16.7992 122.778 16.4268 122.944 15.9837L125.557 16.4545C125.348 17.224 124.972 17.898 124.431 18.4766C123.895 19.049 123.221 19.4953 122.409 19.8153C121.602 20.1293 120.682 20.2862 119.648 20.2862ZM145.783 25.6136C144.656 25.6136 143.687 25.4659 142.874 25.1705C142.068 24.875 141.409 24.4841 140.898 23.9979C140.387 23.5116 140.006 22.9792 139.753 22.4006L142.126 21.4219C142.293 21.6927 142.514 21.9789 142.791 22.2805C143.074 22.5883 143.456 22.8499 143.936 23.0653C144.422 23.2808 145.047 23.3885 145.81 23.3885C146.857 23.3885 147.721 23.133 148.405 22.6222C149.088 22.1174 149.43 21.3111 149.43 20.2031V17.4148H149.254C149.088 17.7164 148.848 18.0518 148.534 18.4212C148.226 18.7905 147.801 19.1106 147.26 19.3814C146.718 19.6522 146.013 19.7876 145.145 19.7876C144.025 19.7876 143.016 19.526 142.117 19.0028C141.225 18.4735 140.517 17.6948 139.993 16.6669C139.476 15.6328 139.218 14.3617 139.218 12.8537C139.218 11.3456 139.473 10.053 139.984 8.97585C140.501 7.89867 141.209 7.07386 142.108 6.50142C143.007 5.92282 144.025 5.63352 145.164 5.63352C146.044 5.63352 146.755 5.78125 147.297 6.0767C147.838 6.366 148.26 6.70454 148.562 7.09233C148.869 7.48011 149.106 7.82173 149.273 8.11719H149.476V5.81818H152.181V20.3139C152.181 21.5327 151.898 22.5329 151.332 23.3146C150.765 24.0964 149.999 24.675 149.033 25.0504C148.072 25.4259 146.989 25.6136 145.783 25.6136ZM145.755 17.4979C146.549 17.4979 147.22 17.3132 147.768 16.9439C148.322 16.5684 148.74 16.0329 149.023 15.3374C149.313 14.6357 149.457 13.7955 149.457 12.8168C149.457 11.8627 149.316 11.0225 149.033 10.2962C148.749 9.56984 148.334 9.00355 147.786 8.5973C147.238 8.1849 146.561 7.97869 145.755 7.97869C144.924 7.97869 144.231 8.19413 143.677 8.625C143.123 9.04972 142.705 9.62831 142.422 10.3608C142.145 11.0933 142.006 11.9119 142.006 12.8168C142.006 13.7462 142.148 14.5618 142.431 15.2635C142.714 15.9652 143.133 16.513 143.687 16.907C144.247 17.3009 144.936 17.4979 145.755 17.4979ZM163.937 20.2862C162.608 20.2862 161.447 19.9815 160.456 19.3722C159.465 18.7628 158.696 17.9103 158.148 16.8146C157.6 15.719 157.326 14.4387 157.326 12.9737C157.326 11.5026 157.6 10.2161 158.148 9.11435C158.696 8.01255 159.465 7.15696 160.456 6.54759C161.447 5.93821 162.608 5.63352 163.937 5.63352C165.267 5.63352 166.427 5.93821 167.418 6.54759C168.409 7.15696 169.178 8.01255 169.726 9.11435C170.274 10.2161 170.548 11.5026 170.548 12.9737C170.548 14.4387 170.274 15.719 169.726 16.8146C169.178 17.9103 168.409 18.7628 167.418 19.3722C166.427 19.9815 165.267 20.2862 163.937 20.2862ZM163.946 17.9688C164.808 17.9688 165.522 17.741 166.088 17.2855C166.655 16.83 167.073 16.2237 167.344 15.4666C167.621 14.7095 167.76 13.8755 167.76 12.9645C167.76 12.0597 167.621 11.2287 167.344 10.4716C167.073 9.70833 166.655 9.09588 166.088 8.63423C165.522 8.17258 164.808 7.94176 163.946 7.94176C163.078 7.94176 162.358 8.17258 161.786 8.63423C161.22 9.09588 160.798 9.70833 160.521 10.4716C160.25 11.2287 160.115 12.0597 160.115 12.9645C160.115 13.8755 160.25 14.7095 160.521 15.4666C160.798 16.2237 161.22 16.83 161.786 17.2855C162.358 17.741 163.078 17.9688 163.946 17.9688ZM182.329 5.81818V8.03409H174.583V5.81818H182.329ZM176.66 2.42045H179.421V15.8359C179.421 16.3714 179.501 16.7746 179.661 17.0455C179.821 17.3101 180.027 17.4917 180.28 17.5902C180.538 17.6825 180.818 17.7287 181.12 17.7287C181.342 17.7287 181.535 17.7133 181.702 17.6825C181.868 17.6518 181.997 17.6271 182.089 17.6087L182.588 19.8892C182.428 19.9508 182.2 20.0123 181.905 20.0739C181.609 20.1416 181.24 20.1785 180.797 20.1847C180.07 20.197 179.393 20.0677 178.766 19.7969C178.138 19.526 177.63 19.1075 177.242 18.5412C176.854 17.9749 176.66 17.264 176.66 16.4084V2.42045ZM194.083 5.81818V8.03409H186.337V5.81818H194.083ZM188.414 2.42045H191.175V15.8359C191.175 16.3714 191.255 16.7746 191.415 17.0455C191.575 17.3101 191.781 17.4917 192.034 17.5902C192.292 17.6825 192.572 17.7287 192.874 17.7287C193.095 17.7287 193.289 17.7133 193.455 17.6825C193.622 17.6518 193.751 17.6271 193.843 17.6087L194.342 19.8892C194.182 19.9508 193.954 20.0123 193.659 20.0739C193.363 20.1416 192.994 20.1785 192.551 20.1847C191.824 20.197 191.147 20.0677 190.519 19.7969C189.892 19.526 189.384 19.1075 188.996 18.5412C188.608 17.9749 188.414 17.264 188.414 16.4084V2.42045ZM205.177 20.2862C203.78 20.2862 202.576 19.9877 201.567 19.3906C200.564 18.7874 199.788 17.9411 199.24 16.8516C198.698 15.7559 198.428 14.4725 198.428 13.0014C198.428 11.5488 198.698 10.2685 199.24 9.16051C199.788 8.05256 200.551 7.18774 201.53 6.56605C202.515 5.94437 203.666 5.63352 204.983 5.63352C205.783 5.63352 206.559 5.76586 207.31 6.03054C208.061 6.29522 208.735 6.7107 209.332 7.27699C209.929 7.84328 210.4 8.57883 210.744 9.48366C211.089 10.3823 211.261 11.4749 211.261 12.7614V13.7401H199.988V11.6719H208.556C208.556 10.9455 208.408 10.3023 208.113 9.74219C207.818 9.1759 207.402 8.72964 206.867 8.40341C206.337 8.07718 205.716 7.91406 205.002 7.91406C204.226 7.91406 203.549 8.10488 202.97 8.48651C202.398 8.86198 201.955 9.3544 201.641 9.96378C201.333 10.567 201.179 11.2225 201.179 11.9304V13.5462C201.179 14.4941 201.345 15.3004 201.678 15.9652C202.016 16.63 202.487 17.1378 203.09 17.4886C203.694 17.8333 204.398 18.0057 205.205 18.0057C205.728 18.0057 206.205 17.9318 206.636 17.7841C207.067 17.6302 207.439 17.4025 207.753 17.1009C208.067 16.7992 208.307 16.4268 208.473 15.9837L211.086 16.4545C210.877 17.224 210.501 17.898 209.96 18.4766C209.424 19.049 208.75 19.4953 207.938 19.8153C207.131 20.1293 206.211 20.2862 205.177 20.2862ZM219.165 11.5795V20H216.404V5.81818H219.054V8.12642H219.23C219.556 7.37547 220.067 6.77225 220.762 6.31676C221.464 5.86127 222.347 5.63352 223.412 5.63352C224.379 5.63352 225.225 5.83665 225.951 6.2429C226.678 6.64299 227.241 7.24006 227.641 8.03409C228.041 8.82812 228.241 9.8099 228.241 10.9794V20H225.48V11.3118C225.48 10.2839 225.213 9.48059 224.677 8.90199C224.142 8.31723 223.406 8.02486 222.471 8.02486C221.83 8.02486 221.261 8.16335 220.762 8.44034C220.27 8.71733 219.879 9.12358 219.59 9.65909C219.307 10.1884 219.165 10.8286 219.165 11.5795ZM242.947 20V17.9318L249.346 11.3026C250.029 10.5824 250.592 9.95147 251.036 9.4098C251.485 8.86198 251.82 8.34186 252.042 7.84943C252.264 7.35701 252.374 6.83381 252.374 6.27983C252.374 5.65199 252.227 5.11032 251.931 4.65483C251.636 4.19318 251.233 3.83925 250.722 3.59304C250.211 3.34067 249.635 3.21449 248.995 3.21449C248.318 3.21449 247.727 3.35298 247.222 3.62997C246.718 3.90696 246.33 4.29782 246.059 4.80256C245.788 5.30729 245.653 5.8982 245.653 6.57528H242.929C242.929 5.42424 243.194 4.41785 243.723 3.55611C244.252 2.69437 244.979 2.02651 245.902 1.55256C246.825 1.07244 247.875 0.832386 249.05 0.832386C250.238 0.832386 251.285 1.06936 252.19 1.54332C253.101 2.01113 253.812 2.65128 254.322 3.46378C254.833 4.27012 255.089 5.18111 255.089 6.19673C255.089 6.89844 254.956 7.58475 254.692 8.25568C254.433 8.92661 253.981 9.67448 253.335 10.4993C252.688 11.3179 251.79 12.312 250.639 13.4815L246.881 17.4148V17.5533H255.394V20H242.947ZM267.556 20.3139C266.097 20.3078 264.851 19.9231 263.817 19.1598C262.782 18.3965 261.991 17.2855 261.444 15.8267C260.896 14.3679 260.622 12.6106 260.622 10.5547C260.622 8.50497 260.896 6.75379 261.444 5.30114C261.998 3.84848 262.792 2.74053 263.826 1.97727C264.866 1.21401 266.109 0.832386 267.556 0.832386C269.002 0.832386 270.243 1.21709 271.277 1.9865C272.311 2.74976 273.102 3.85772 273.65 5.31037C274.204 6.75687 274.481 8.50497 274.481 10.5547C274.481 12.6167 274.207 14.3771 273.659 15.8359C273.111 17.2886 272.32 18.3996 271.286 19.169C270.252 19.9323 269.009 20.3139 267.556 20.3139ZM267.556 17.8487C268.836 17.8487 269.836 17.224 270.557 15.9744C271.283 14.7249 271.646 12.9183 271.646 10.5547C271.646 8.98508 271.48 7.65862 271.148 6.57528C270.821 5.48579 270.35 4.66098 269.735 4.10085C269.125 3.53456 268.399 3.25142 267.556 3.25142C266.282 3.25142 265.282 3.87926 264.555 5.13494C263.829 6.39062 263.463 8.19721 263.456 10.5547C263.456 12.1304 263.62 13.4631 263.946 14.5526C264.278 15.6359 264.749 16.4576 265.358 17.0178C265.968 17.5717 266.7 17.8487 267.556 17.8487ZM286.419 20.3139C284.96 20.3078 283.714 19.9231 282.68 19.1598C281.646 18.3965 280.855 17.2855 280.307 15.8267C279.759 14.3679 279.485 12.6106 279.485 10.5547C279.485 8.50497 279.759 6.75379 280.307 5.30114C280.861 3.84848 281.655 2.74053 282.689 1.97727C283.729 1.21401 284.973 0.832386 286.419 0.832386C287.866 0.832386 289.106 1.21709 290.14 1.9865C291.174 2.74976 291.965 3.85772 292.513 5.31037C293.067 6.75687 293.344 8.50497 293.344 10.5547C293.344 12.6167 293.07 14.3771 292.522 15.8359C291.974 17.2886 291.183 18.3996 290.149 19.169C289.115 19.9323 287.872 20.3139 286.419 20.3139ZM286.419 17.8487C287.699 17.8487 288.7 17.224 289.42 15.9744C290.146 14.7249 290.509 12.9183 290.509 10.5547C290.509 8.98508 290.343 7.65862 290.011 6.57528C289.684 5.48579 289.214 4.66098 288.598 4.10085C287.989 3.53456 287.262 3.25142 286.419 3.25142C285.145 3.25142 284.145 3.87926 283.418 5.13494C282.692 6.39062 282.326 8.19721 282.32 10.5547C282.32 12.1304 282.483 13.4631 282.809 14.5526C283.141 15.6359 283.612 16.4576 284.222 17.0178C284.831 17.5717 285.564 17.8487 286.419 17.8487ZM313.671 20.2862C312.298 20.2862 311.116 19.9754 310.125 19.3537C309.14 18.7259 308.383 17.861 307.854 16.7592C307.325 15.6574 307.06 14.3956 307.06 12.9737C307.06 11.5334 307.331 10.2623 307.872 9.16051C308.414 8.05256 309.177 7.18774 310.162 6.56605C311.147 5.94437 312.307 5.63352 313.643 5.63352C314.72 5.63352 315.68 5.83357 316.524 6.23366C317.367 6.6276 318.047 7.18158 318.564 7.8956C319.087 8.60961 319.398 9.44365 319.497 10.3977H316.81C316.662 9.73295 316.324 9.16051 315.794 8.6804C315.271 8.20028 314.569 7.96023 313.689 7.96023C312.92 7.96023 312.246 8.16335 311.667 8.5696C311.095 8.9697 310.648 9.54214 310.328 10.2869C310.008 11.0256 309.848 11.8996 309.848 12.9091C309.848 13.9432 310.005 14.8357 310.319 15.5866C310.633 16.3376 311.076 16.9193 311.649 17.3317C312.227 17.7441 312.907 17.9503 313.689 17.9503C314.212 17.9503 314.686 17.8549 315.111 17.6641C315.542 17.4671 315.902 17.187 316.191 16.8239C316.487 16.4607 316.693 16.0237 316.81 15.5128H319.497C319.398 16.4299 319.1 17.2486 318.601 17.9688C318.103 18.6889 317.435 19.2552 316.598 19.6676C315.767 20.08 314.791 20.2862 313.671 20.2862ZM330.503 20.2862C329.173 20.2862 328.013 19.9815 327.022 19.3722C326.031 18.7628 325.261 17.9103 324.714 16.8146C324.166 15.719 323.892 14.4387 323.892 12.9737C323.892 11.5026 324.166 10.2161 324.714 9.11435C325.261 8.01255 326.031 7.15696 327.022 6.54759C328.013 5.93821 329.173 5.63352 330.503 5.63352C331.832 5.63352 332.992 5.93821 333.983 6.54759C334.974 7.15696 335.744 8.01255 336.292 9.11435C336.84 10.2161 337.113 11.5026 337.113 12.9737C337.113 14.4387 336.84 15.719 336.292 16.8146C335.744 17.9103 334.974 18.7628 333.983 19.3722C332.992 19.9815 331.832 20.2862 330.503 20.2862ZM330.512 17.9688C331.374 17.9688 332.088 17.741 332.654 17.2855C333.22 16.83 333.639 16.2237 333.91 15.4666C334.187 14.7095 334.325 13.8755 334.325 12.9645C334.325 12.0597 334.187 11.2287 333.91 10.4716C333.639 9.70833 333.22 9.09588 332.654 8.63423C332.088 8.17258 331.374 7.94176 330.512 7.94176C329.644 7.94176 328.924 8.17258 328.351 8.63423C327.785 9.09588 327.363 9.70833 327.086 10.4716C326.816 11.2287 326.68 12.0597 326.68 12.9645C326.68 13.8755 326.816 14.7095 327.086 15.4666C327.363 16.2237 327.785 16.83 328.351 17.2855C328.924 17.741 329.644 17.9688 330.512 17.9688ZM342.275 20V5.81818H345.036V20H342.275ZM343.669 3.62997C343.189 3.62997 342.777 3.46993 342.432 3.14986C342.093 2.82363 341.924 2.43584 341.924 1.9865C341.924 1.53101 342.093 1.14323 342.432 0.823152C342.777 0.496922 343.189 0.333806 343.669 0.333806C344.149 0.333806 344.559 0.496922 344.897 0.823152C345.242 1.14323 345.414 1.53101 345.414 1.9865C345.414 2.43584 345.242 2.82363 344.897 3.14986C344.559 3.46993 344.149 3.62997 343.669 3.62997ZM353.59 11.5795V20H350.83V5.81818H353.479V8.12642H353.655C353.981 7.37547 354.492 6.77225 355.188 6.31676C355.889 5.86127 356.773 5.63352 357.837 5.63352C358.804 5.63352 359.65 5.83665 360.376 6.2429C361.103 6.64299 361.666 7.24006 362.066 8.03409C362.466 8.82812 362.666 9.8099 362.666 10.9794V20H359.906V11.3118C359.906 10.2839 359.638 9.48059 359.102 8.90199C358.567 8.31723 357.831 8.02486 356.896 8.02486C356.255 8.02486 355.686 8.16335 355.188 8.44034C354.695 8.71733 354.304 9.12358 354.015 9.65909C353.732 10.1884 353.59 10.8286 353.59 11.5795ZM379.076 9.28054L376.574 9.72372C376.469 9.40365 376.303 9.09896 376.075 8.80966C375.853 8.52036 375.552 8.28338 375.17 8.09872C374.789 7.91406 374.312 7.82173 373.739 7.82173C372.957 7.82173 372.305 7.99716 371.782 8.34801C371.259 8.69271 370.997 9.13897 370.997 9.68679C370.997 10.1607 371.172 10.5424 371.523 10.8317C371.874 11.121 372.44 11.358 373.222 11.5426L375.475 12.0597C376.78 12.3613 377.752 12.826 378.393 13.4538C379.033 14.0817 379.353 14.8973 379.353 15.9006C379.353 16.75 379.107 17.5071 378.614 18.1719C378.128 18.8305 377.448 19.3475 376.574 19.723C375.706 20.0985 374.699 20.2862 373.554 20.2862C371.966 20.2862 370.671 19.9477 369.667 19.2706C368.664 18.5874 368.049 17.6179 367.821 16.3622L370.489 15.956C370.655 16.6515 370.997 17.1778 371.514 17.5348C372.031 17.8857 372.705 18.0611 373.536 18.0611C374.441 18.0611 375.164 17.8733 375.706 17.4979C376.247 17.1162 376.518 16.6515 376.518 16.1037C376.518 15.6605 376.352 15.2881 376.02 14.9865C375.693 14.6849 375.192 14.4571 374.515 14.3033L372.114 13.777C370.791 13.4754 369.812 12.9953 369.178 12.3366C368.55 11.678 368.236 10.844 368.236 9.83452C368.236 8.9974 368.47 8.26491 368.938 7.63707C369.406 7.00923 370.052 6.51989 370.877 6.16903C371.702 5.81203 372.647 5.63352 373.711 5.63352C375.244 5.63352 376.451 5.96591 377.331 6.63068C378.211 7.2893 378.793 8.17258 379.076 9.28054Z" fill="url(#paint0_linear_1672_3745)"/>
<defs>
<linearGradient id="paint0_linear_1672_3745" x1="190" y1="-5" x2="190" y2="19.6852" gradientUnits="userSpaceOnUse">
<stop stop-color="#FAE888"/>
<stop offset="0.525858" stop-color="#EAD941" stop-opacity="0.937292"/>
<stop offset="1" stop-color="#FFB526" stop-opacity="0.86"/>
</linearGradient>
</defs>
</svg>
