<svg width="420" height="45" viewBox="0 0 420 45" fill="none" xmlns="http://www.w3.org/2000/svg">
<path d="M30.8279 13.315H24.9472C24.9472 12.3349 24.7874 11.4666 24.4678 10.7102C24.1482 9.94318 23.7008 9.29332 23.1255 8.76065C22.5502 8.22798 21.8684 7.82848 21.08 7.56214C20.2917 7.28516 19.4181 7.14666 18.4593 7.14666C16.6269 7.14666 14.9223 7.61009 13.3456 8.53693C11.7689 9.46378 10.4319 10.8114 9.33463 12.5799C8.23733 14.3377 7.47561 16.4737 7.04947 18.9879C6.6553 21.4382 6.69258 23.489 7.16133 25.1403C7.64074 26.7915 8.4717 28.038 9.65423 28.8796C10.8368 29.7106 12.275 30.1261 13.9689 30.1261C15.0022 30.1261 15.993 29.9982 16.9412 29.7425C17.8893 29.4762 18.7629 29.0874 19.5619 28.576C20.3716 28.054 21.08 27.4201 21.6873 26.6744C22.3052 25.9286 22.7846 25.0817 23.1255 24.1335H29.086C28.596 25.6889 27.8769 27.1538 26.9287 28.5281C25.9806 29.8917 24.8407 31.0955 23.509 32.1396C22.1773 33.1729 20.6858 33.9826 19.0346 34.5685C17.3833 35.1545 15.6042 35.4474 13.6972 35.4474C10.7675 35.4474 8.25864 34.7656 6.17057 33.402C4.09315 32.0277 2.60168 30.0621 1.69614 27.5053C0.790595 24.9379 0.630794 21.8643 1.21673 18.2848C1.80267 14.8011 2.93193 11.8342 4.60452 9.38388C6.28775 6.93359 8.33854 5.06392 10.7569 3.77486C13.1858 2.47514 15.8012 1.82528 18.6031 1.82528C20.4568 1.82528 22.14 2.08096 23.6528 2.59233C25.1762 3.10369 26.4813 3.85476 27.5679 4.84553C28.6546 5.82564 29.4802 7.02947 30.0449 8.45703C30.6201 9.87393 30.8812 11.4933 30.8279 13.315ZM46.8085 35.4794C44.3902 35.4794 42.3767 34.9467 40.768 33.8814C39.17 32.8161 38.046 31.3192 37.3962 29.391C36.7463 27.4627 36.6291 25.2255 37.0446 22.6793C37.4601 20.1651 38.2911 17.9652 39.5375 16.0795C40.7946 14.1939 42.3767 12.7344 44.2836 11.701C46.2012 10.657 48.3479 10.1349 50.7236 10.1349C53.1419 10.1349 55.1501 10.6729 56.7481 11.7489C58.3461 12.8143 59.4701 14.3111 60.1199 16.2393C60.7804 18.1676 60.9029 20.4155 60.4875 22.983C60.0826 25.4865 59.2463 27.6758 57.9786 29.5508C56.7215 31.4258 55.1394 32.8853 53.2325 33.9293C51.3255 34.9627 49.1842 35.4794 46.8085 35.4794ZM47.2879 30.8452C48.6302 30.8452 49.8074 30.483 50.8195 29.7585C51.8422 29.0234 52.6785 28.038 53.3284 26.8022C53.9889 25.5558 54.447 24.1708 54.7027 22.6474C54.937 21.1772 54.9424 19.8455 54.7186 18.6523C54.4949 17.4485 54.0155 16.495 53.2804 15.7919C52.556 15.0781 51.5492 14.7212 50.2602 14.7212C48.9178 14.7212 47.73 15.0941 46.6966 15.8398C45.6739 16.5749 44.8376 17.5657 44.1877 18.8121C43.5379 20.0479 43.0904 21.4276 42.8454 22.951C42.6004 24.4212 42.5897 25.7528 42.8134 26.946C43.0372 28.1392 43.5166 29.0874 44.2517 29.7905C44.9867 30.4936 45.9988 30.8452 47.2879 30.8452ZM75.1976 20.6179L72.8326 35H67.0318L71.1227 10.4545H76.6678L75.9647 14.6254H76.2683C77.0353 13.2511 78.1113 12.1591 79.4963 11.3494C80.8812 10.5398 82.4952 10.1349 84.3382 10.1349C86.0108 10.1349 87.4171 10.4972 88.557 11.2216C89.6969 11.9354 90.5066 12.9847 90.986 14.3697C91.4654 15.744 91.54 17.4112 91.2097 19.3714L88.589 35H82.8042L85.2491 20.2663C85.5261 18.6364 85.3184 17.358 84.6259 16.4311C83.9441 15.4936 82.8468 15.0249 81.334 15.0249C80.3219 15.0249 79.3897 15.2486 78.5375 15.696C77.6852 16.1328 76.9661 16.7667 76.3802 17.5977C75.8049 18.4286 75.4107 19.4354 75.1976 20.6179ZM107.178 44.7159C105.09 44.7159 103.348 44.4336 101.953 43.869C100.557 43.315 99.4812 42.5692 98.7248 41.6317C97.9684 40.6942 97.4997 39.6555 97.3186 38.5156L102.752 37.2532C102.912 37.7326 103.167 38.2067 103.519 38.6754C103.881 39.1548 104.414 39.549 105.117 39.858C105.82 40.1776 106.758 40.3374 107.929 40.3374C109.57 40.3374 111.003 39.9379 112.228 39.1388C113.453 38.3398 114.21 37.0401 114.497 35.2397L115.232 30.5895H114.945C114.561 31.1861 114.034 31.7987 113.363 32.4272C112.702 33.0558 111.866 33.5831 110.854 34.0092C109.852 34.4354 108.648 34.6484 107.242 34.6484C105.357 34.6484 103.721 34.2063 102.336 33.3221C100.951 32.4272 99.9553 31.0955 99.3481 29.3271C98.7515 27.5479 98.6769 25.3214 99.1243 22.6474C99.5611 19.9521 100.381 17.6776 101.585 15.8239C102.8 13.9595 104.254 12.5479 105.948 11.5891C107.642 10.6197 109.432 10.1349 111.317 10.1349C112.755 10.1349 113.901 10.38 114.753 10.87C115.605 11.3494 116.25 11.93 116.686 12.6119C117.123 13.283 117.443 13.9169 117.645 14.5135H117.949L118.62 10.4545H124.325L120.202 35.3995C119.861 37.4982 119.078 39.2347 117.853 40.609C116.628 41.994 115.088 43.022 113.235 43.6932C111.392 44.375 109.373 44.7159 107.178 44.7159ZM109.543 30.1101C110.769 30.1101 111.866 29.8118 112.835 29.2152C113.805 28.6186 114.614 27.761 115.264 26.6424C115.914 25.5238 116.367 24.1815 116.623 22.6154C116.878 21.0707 116.868 19.7177 116.591 18.5565C116.324 17.3952 115.808 16.495 115.041 15.8558C114.273 15.206 113.272 14.881 112.036 14.881C110.747 14.881 109.618 15.2166 108.648 15.8878C107.69 16.5589 106.901 17.4805 106.283 18.6523C105.676 19.8136 105.25 21.1346 105.005 22.6154C104.771 24.1175 104.771 25.4332 105.005 26.5625C105.25 27.6811 105.745 28.5547 106.491 29.1832C107.248 29.8011 108.265 30.1101 109.543 30.1101ZM129.763 35L133.854 10.4545H139.463L138.775 14.5455H139.031C139.702 13.1286 140.65 12.0366 141.876 11.2695C143.111 10.4918 144.432 10.103 145.839 10.103C146.169 10.103 146.526 10.119 146.909 10.1509C147.293 10.1722 147.623 10.2095 147.9 10.2628L147.005 15.5842C146.76 15.4989 146.377 15.4244 145.855 15.3604C145.343 15.2859 144.837 15.2486 144.337 15.2486C143.282 15.2486 142.302 15.4776 141.396 15.9357C140.501 16.3832 139.745 17.0064 139.127 17.8054C138.509 18.6044 138.11 19.5259 137.929 20.57L135.547 35H129.763ZM157.808 35.4954C156.253 35.4954 154.9 35.2184 153.749 34.6644C152.599 34.0998 151.752 33.2688 151.208 32.1715C150.676 31.0742 150.543 29.7212 150.809 28.1126C151.043 26.7276 151.491 25.5824 152.151 24.6768C152.822 23.7713 153.643 23.0469 154.612 22.5036C155.592 21.9496 156.658 21.5341 157.808 21.2571C158.969 20.9801 160.152 20.7777 161.356 20.6499C162.826 20.5007 164.014 20.3622 164.919 20.2344C165.836 20.1065 166.523 19.9148 166.981 19.6591C167.439 19.3928 167.716 18.9879 167.812 18.4446V18.3487C168.004 17.1449 167.812 16.2127 167.237 15.5522C166.661 14.8917 165.702 14.5614 164.36 14.5614C162.954 14.5614 161.771 14.8704 160.813 15.4883C159.854 16.1062 159.156 16.8359 158.719 17.6776L153.478 16.9105C154.138 15.419 155.044 14.1726 156.194 13.1712C157.345 12.1591 158.671 11.4027 160.173 10.902C161.686 10.3906 163.3 10.1349 165.015 10.1349C166.187 10.1349 167.332 10.2734 168.451 10.5504C169.58 10.8274 170.576 11.2855 171.439 11.9247C172.313 12.5533 172.952 13.4109 173.357 14.4975C173.772 15.5842 173.842 16.9425 173.565 18.5724L170.832 35H165.271L165.846 31.6282H165.654C165.196 32.31 164.6 32.9492 163.865 33.5458C163.13 34.1317 162.256 34.6058 161.244 34.968C160.232 35.3196 159.087 35.4954 157.808 35.4954ZM159.998 31.2447C161.159 31.2447 162.203 31.0156 163.13 30.5575C164.056 30.0888 164.818 29.4709 165.415 28.7038C166.011 27.9368 166.384 27.1005 166.533 26.195L167.013 23.3026C166.8 23.4517 166.469 23.5902 166.022 23.718C165.575 23.8459 165.074 23.9577 164.52 24.0536C163.977 24.1495 163.439 24.2347 162.906 24.3093C162.373 24.3839 161.915 24.4478 161.532 24.5011C160.647 24.6183 159.838 24.81 159.103 25.0763C158.378 25.3427 157.776 25.7156 157.297 26.195C156.828 26.6637 156.535 27.271 156.418 28.0167C156.248 29.0714 156.498 29.8757 157.169 30.4297C157.84 30.973 158.783 31.2447 159.998 31.2447ZM196.596 10.4545L195.845 14.929H181.751L182.486 10.4545H196.596ZM186.929 4.57386H192.713L188.878 27.6172C188.761 28.3949 188.782 28.9915 188.942 29.407C189.112 29.8118 189.384 30.0888 189.757 30.2379C190.141 30.3871 190.572 30.4616 191.051 30.4616C191.403 30.4616 191.733 30.435 192.042 30.3817C192.351 30.3178 192.596 30.2699 192.777 30.2379L193.033 34.7603C192.681 34.8668 192.207 34.984 191.611 35.1119C191.025 35.2397 190.322 35.3143 189.501 35.3356C188.031 35.3675 186.753 35.1438 185.666 34.6644C184.59 34.1744 183.802 33.4233 183.301 32.4112C182.811 31.3885 182.699 30.1101 182.965 28.576L186.929 4.57386ZM218.298 24.6768L220.679 10.4545H226.464L222.373 35H216.764L217.499 30.6374H217.243C216.476 32.0117 215.379 33.1357 213.951 34.0092C212.534 34.8828 210.904 35.3196 209.061 35.3196C207.453 35.3196 206.094 34.9627 204.987 34.2489C203.879 33.5245 203.09 32.4751 202.621 31.1009C202.163 29.7159 202.094 28.0433 202.414 26.0831L205.034 10.4545H210.819L208.358 25.1882C208.113 26.7436 208.337 27.9794 209.029 28.8956C209.733 29.8118 210.777 30.2699 212.162 30.2699C213.014 30.2699 213.871 30.0621 214.734 29.6467C215.608 29.2312 216.37 28.6133 217.02 27.793C217.669 26.962 218.096 25.9233 218.298 24.6768ZM243.14 2.27273L237.706 35H231.921L237.355 2.27273H243.14ZM254.254 35.4954C252.699 35.4954 251.346 35.2184 250.195 34.6644C249.045 34.0998 248.198 33.2688 247.654 32.1715C247.122 31.0742 246.989 29.7212 247.255 28.1126C247.489 26.7276 247.937 25.5824 248.597 24.6768C249.268 23.7713 250.089 23.0469 251.058 22.5036C252.038 21.9496 253.104 21.5341 254.254 21.2571C255.415 20.9801 256.598 20.7777 257.802 20.6499C259.272 20.5007 260.46 20.3622 261.365 20.2344C262.281 20.1065 262.969 19.9148 263.427 19.6591C263.885 19.3928 264.162 18.9879 264.258 18.4446V18.3487C264.449 17.1449 264.258 16.2127 263.682 15.5522C263.107 14.8917 262.148 14.5614 260.806 14.5614C259.4 14.5614 258.217 14.8704 257.258 15.4883C256.3 16.1062 255.602 16.8359 255.165 17.6776L249.924 16.9105C250.584 15.419 251.49 14.1726 252.64 13.1712C253.791 12.1591 255.117 11.4027 256.619 10.902C258.132 10.3906 259.746 10.1349 261.461 10.1349C262.633 10.1349 263.778 10.2734 264.897 10.5504C266.026 10.8274 267.022 11.2855 267.885 11.9247C268.759 12.5533 269.398 13.4109 269.803 14.4975C270.218 15.5842 270.288 16.9425 270.011 18.5724L267.278 35H261.717L262.292 31.6282H262.1C261.642 32.31 261.046 32.9492 260.311 33.5458C259.576 34.1317 258.702 34.6058 257.69 34.968C256.678 35.3196 255.533 35.4954 254.254 35.4954ZM256.443 31.2447C257.605 31.2447 258.649 31.0156 259.576 30.5575C260.502 30.0888 261.264 29.4709 261.861 28.7038C262.457 27.9368 262.83 27.1005 262.979 26.195L263.459 23.3026C263.246 23.4517 262.915 23.5902 262.468 23.718C262.02 23.8459 261.52 23.9577 260.966 24.0536C260.422 24.1495 259.884 24.2347 259.352 24.3093C258.819 24.3839 258.361 24.4478 257.978 24.5011C257.093 24.6183 256.284 24.81 255.549 25.0763C254.824 25.3427 254.222 25.7156 253.743 26.195C253.274 26.6637 252.981 27.271 252.864 28.0167C252.693 29.0714 252.944 29.8757 253.615 30.4297C254.286 30.973 255.229 31.2447 256.443 31.2447ZM293.042 10.4545L292.291 14.929H278.197L278.932 10.4545H293.042ZM283.374 4.57386H289.159L285.324 27.6172C285.207 28.3949 285.228 28.9915 285.388 29.407C285.558 29.8118 285.83 30.0888 286.203 30.2379C286.586 30.3871 287.018 30.4616 287.497 30.4616C287.849 30.4616 288.179 30.435 288.488 30.3817C288.797 30.3178 289.042 30.2699 289.223 30.2379L289.479 34.7603C289.127 34.8668 288.653 34.984 288.057 35.1119C287.471 35.2397 286.768 35.3143 285.947 35.3356C284.477 35.3675 283.199 35.1438 282.112 34.6644C281.036 34.1744 280.248 33.4233 279.747 32.4112C279.257 31.3885 279.145 30.1101 279.411 28.576L283.374 4.57386ZM297.389 35L301.48 10.4545H307.265L303.174 35H297.389ZM305.22 6.93892C304.293 6.93892 303.526 6.62997 302.919 6.01207C302.311 5.39417 302.045 4.65376 302.12 3.79084C302.194 2.92791 302.583 2.1875 303.286 1.5696C304 0.951704 304.815 0.642756 305.731 0.642756C306.658 0.642756 307.42 0.951704 308.016 1.5696C308.623 2.1875 308.89 2.92791 308.815 3.79084C308.751 4.65376 308.362 5.39417 307.649 6.01207C306.946 6.62997 306.136 6.93892 305.22 6.93892ZM323.493 35.4794C321.075 35.4794 319.062 34.9467 317.453 33.8814C315.855 32.8161 314.731 31.3192 314.081 29.391C313.431 27.4627 313.314 25.2255 313.73 22.6793C314.145 20.1651 314.976 17.9652 316.223 16.0795C317.48 14.1939 319.062 12.7344 320.969 11.701C322.886 10.657 325.033 10.1349 327.409 10.1349C329.827 10.1349 331.835 10.6729 333.433 11.7489C335.031 12.8143 336.155 14.3111 336.805 16.2393C337.465 18.1676 337.588 20.4155 337.172 22.983C336.768 25.4865 335.931 27.6758 334.664 29.5508C333.406 31.4258 331.824 32.8853 329.917 33.9293C328.011 34.9627 325.869 35.4794 323.493 35.4794ZM323.973 30.8452C325.315 30.8452 326.492 30.483 327.504 29.7585C328.527 29.0234 329.363 28.038 330.013 26.8022C330.674 25.5558 331.132 24.1708 331.388 22.6474C331.622 21.1772 331.627 19.8455 331.404 18.6523C331.18 17.4485 330.7 16.495 329.965 15.7919C329.241 15.0781 328.234 14.7212 326.945 14.7212C325.603 14.7212 324.415 15.0941 323.382 15.8398C322.359 16.5749 321.523 17.5657 320.873 18.8121C320.223 20.0479 319.775 21.4276 319.53 22.951C319.285 24.4212 319.275 25.7528 319.498 26.946C319.722 28.1392 320.202 29.0874 320.937 29.7905C321.672 30.4936 322.684 30.8452 323.973 30.8452ZM351.883 20.6179L349.518 35H343.717L347.808 10.4545H353.353L352.65 14.6254H352.953C353.72 13.2511 354.796 12.1591 356.181 11.3494C357.566 10.5398 359.18 10.1349 361.023 10.1349C362.696 10.1349 364.102 10.4972 365.242 11.2216C366.382 11.9354 367.192 12.9847 367.671 14.3697C368.15 15.744 368.225 17.4112 367.895 19.3714L365.274 35H359.489L361.934 20.2663C362.211 18.6364 362.003 17.358 361.311 16.4311C360.629 15.4936 359.532 15.0249 358.019 15.0249C357.007 15.0249 356.075 15.2486 355.222 15.696C354.37 16.1328 353.651 16.7667 353.065 17.5977C352.49 18.4286 352.096 19.4354 351.883 20.6179ZM401.965 2.27273L397.619 25.38H392.505L395.813 2.27273H401.965ZM393.831 35.3516C392.851 35.3516 392.042 35.0107 391.402 34.3288C390.763 33.647 390.465 32.8161 390.507 31.8359C390.55 30.8771 390.939 30.0621 391.674 29.391C392.409 28.7198 393.256 28.3842 394.215 28.3842C395.163 28.3842 395.967 28.7251 396.628 29.407C397.299 30.0888 397.603 30.8984 397.539 31.8359C397.496 32.4964 397.294 33.093 396.932 33.6257C396.58 34.1584 396.132 34.5792 395.589 34.8881C395.046 35.1971 394.46 35.3516 393.831 35.3516ZM419.452 2.27273L415.105 25.38H409.992L413.3 2.27273H419.452ZM411.318 35.3516C410.338 35.3516 409.528 35.0107 408.889 34.3288C408.25 33.647 407.952 32.8161 407.994 31.8359C408.037 30.8771 408.426 30.0621 409.161 29.391C409.896 28.7198 410.743 28.3842 411.702 28.3842C412.65 28.3842 413.454 28.7251 414.115 29.407C414.786 30.0888 415.089 30.8984 415.025 31.8359C414.983 32.4964 414.78 33.093 414.418 33.6257C414.067 34.1584 413.619 34.5792 413.076 34.8881C412.533 35.1971 411.947 35.3516 411.318 35.3516Z" fill="url(#paint0_linear_1412_1859)"/>
<defs>
<linearGradient id="paint0_linear_1412_1859" x1="209" y1="-8" x2="209" y2="35" gradientUnits="userSpaceOnUse">
<stop stop-color="#FAE888"/>
<stop offset="0.525858" stop-color="#EAD941" stop-opacity="0.937292"/>
<stop offset="1" stop-color="#C2840B" stop-opacity="0.86"/>
</linearGradient>
</defs>
</svg>
