<svg width="189" height="44" viewBox="0 0 189 44" fill="none" xmlns="http://www.w3.org/2000/svg">
<path d="M28.152 2.664C28.6 2.664 29.144 2.968 29.784 3.576C30.456 4.152 30.792 4.648 30.792 5.064C30.792 7.016 30.728 9.688 30.6 13.08C30.568 13.912 30.536 14.92 30.504 16.104C30.472 17.256 30.456 18.6 30.456 20.136C30.456 25 30.744 28.584 31.32 30.888C31.288 31.656 30.984 32.216 30.408 32.568C29.832 32.888 29.256 33.048 28.68 33.048C27.4 33.048 26.552 32.6 26.136 31.704C25.752 30.808 25.56 29.528 25.56 27.864C25.56 21.688 25.624 16.008 25.752 10.824C22.072 14.92 19.208 18.36 17.16 21.144C17.16 21.144 16.872 21.336 16.296 21.72C15.752 22.2 15.304 22.44 14.952 22.44C14.12 22.44 13.432 22.232 12.888 21.816C12.344 21.4 11.816 20.792 11.304 19.992L9 16.728C7.4 14.488 6.232 12.792 5.496 11.64C5.496 14.584 5.64 18.584 5.928 23.64C6.152 26.552 6.264 28.744 6.264 30.216C6.264 30.984 6.072 31.64 5.688 32.184C5.304 32.696 4.696 32.952 3.864 32.952C3.032 32.952 2.344 32.792 1.8 32.472C1.288 32.152 1.016 31.672 0.984 31.032C1.016 30.488 1.032 29.592 1.032 28.344C1.032 25.848 0.952 22.808 0.792 19.224L0.696 16.632L0.6 13.272C0.568 12.28 0.536 11.128 0.504 9.816C0.472 8.472 0.456 7.016 0.456 5.448C0.456 3.528 1.496 2.568 3.576 2.568C4.216 2.568 4.856 2.728 5.496 3.048C6.168 3.368 6.664 3.832 6.984 4.44C7.24 5.56 8.184 7.416 9.816 10.008C11.448 12.6 13.048 15.032 14.616 17.304C16.024 15.512 17.176 14.168 18.072 13.272C19.608 11.704 20.872 10.248 21.864 8.904C22.888 7.56 23.992 5.944 25.176 4.056C25.464 3.672 25.88 3.352 26.424 3.096C26.968 2.808 27.544 2.664 28.152 2.664ZM59.1184 30.696C59.1184 31.4 58.7344 31.992 57.9664 32.472C57.2304 32.952 56.5424 33.192 55.9024 33.192C54.6864 33.192 53.7104 33.048 52.9744 32.76C52.2704 32.44 51.6144 31.864 51.0064 31.032C50.1744 31.768 49.0384 32.328 47.5984 32.712C46.1584 33.064 44.8304 33.24 43.6144 33.24C41.6304 33.24 39.9984 32.712 38.7184 31.656C37.4384 30.568 36.7984 28.984 36.7984 26.904C36.7984 26.008 37.0384 25.192 37.5184 24.456C37.9984 23.688 38.6544 23.016 39.4864 22.44C40.4144 21.832 41.4704 21.368 42.6544 21.048C43.8384 20.696 45.0704 20.52 46.3504 20.52C47.0224 20.52 47.8224 20.648 48.7504 20.904C49.6784 21.16 50.3984 21.432 50.9104 21.72V20.952C50.9104 19.224 50.4944 18.04 49.6624 17.4C48.8304 16.728 47.4864 16.392 45.6304 16.392C45.0864 16.392 44.5424 16.504 43.9984 16.728C43.4864 16.952 42.8944 17.256 42.2224 17.64C41.3264 18.12 40.4784 18.36 39.6784 18.36C39.3904 18.36 39.1184 18.168 38.8624 17.784C38.6064 17.368 38.4784 17 38.4784 16.68C38.4784 15.752 38.9104 14.952 39.7744 14.28C40.6704 13.608 41.7264 13.112 42.9424 12.792C44.1584 12.44 45.2464 12.264 46.2064 12.264C47.1664 12.264 48.2704 12.456 49.5184 12.84C50.7664 13.192 51.7904 13.688 52.5904 14.328C53.5504 15.16 54.2864 16.136 54.7984 17.256C55.3424 18.344 55.6144 19.544 55.6144 20.856C55.6144 21.272 55.5824 21.896 55.5184 22.728C55.4544 23.624 55.4224 24.392 55.4224 25.032C55.4224 25.32 55.3904 25.752 55.3264 26.328C55.2624 27.032 55.2304 27.592 55.2304 28.008C55.2304 28.392 55.3744 28.728 55.6624 29.016C55.9504 29.272 56.2864 29.4 56.6704 29.4L58.0144 29.352C58.3664 29.352 58.6384 29.48 58.8304 29.736C59.0224 29.992 59.1184 30.312 59.1184 30.696ZM43.6624 29.448C45.0384 29.448 46.1904 29.304 47.1184 29.016C48.0464 28.728 49.1664 28.2 50.4784 27.432C50.6064 26.888 50.6864 26.168 50.7184 25.272C48.9584 24.44 47.5024 24.024 46.3504 24.024C45.0384 24.024 43.8704 24.264 42.8464 24.744C41.8224 25.224 41.3104 26.072 41.3104 27.288C41.3104 27.896 41.5664 28.408 42.0784 28.824C42.5904 29.24 43.1184 29.448 43.6624 29.448ZM62.0753 16.392C61.6273 16.328 61.2593 16.136 60.9713 15.816C60.7153 15.496 60.5873 15.112 60.5873 14.664C60.5873 14.44 60.6353 14.2 60.7313 13.944C60.8593 13.688 61.0353 13.464 61.2593 13.272C61.6753 12.856 62.7953 12.648 64.6193 12.648C64.8753 11.4 65.0033 10.136 65.0033 8.856C65.0033 8.376 64.9873 7.96 64.9553 7.608C64.9233 7.256 64.9073 6.984 64.9073 6.792C64.9073 6.088 65.1633 5.56 65.6753 5.208C66.2193 4.856 66.8273 4.68 67.4993 4.68C68.3313 4.68 68.8913 4.888 69.1793 5.304C69.4993 5.72 69.6593 6.488 69.6593 7.608C69.6593 9.272 69.5153 10.904 69.2273 12.504C69.7393 12.504 70.4433 12.472 71.3393 12.408C72.5553 12.344 73.4353 12.312 73.9793 12.312C74.5233 12.312 74.9873 12.456 75.3713 12.744C75.7873 13 75.9953 13.368 75.9953 13.848C75.9953 15.096 75.4353 15.832 74.3153 16.056C73.1313 16.344 71.2913 16.52 68.7953 16.584C68.6993 17.832 68.6513 19.192 68.6513 20.664C68.6513 22.968 68.7953 24.856 69.0833 26.328C69.2753 27.352 69.5953 28.104 70.0433 28.584C70.5233 29.032 71.2273 29.256 72.1553 29.256C72.6993 29.256 73.2593 29.112 73.8353 28.824C74.2193 28.6 74.5713 28.488 74.8913 28.488C75.3393 28.488 75.6593 28.632 75.8513 28.92C76.0753 29.208 76.1873 29.592 76.1873 30.072C76.1873 30.968 75.7073 31.72 74.7473 32.328C73.7873 32.904 72.5553 33.192 71.0513 33.192C70.1233 33.192 69.1793 32.968 68.2193 32.52C67.2913 32.072 66.5073 31.512 65.8672 30.84C65.7713 30.744 65.5953 30.376 65.3393 29.736C65.0833 29.096 64.8593 28.408 64.6673 27.672C64.3473 26.168 64.1873 24.056 64.1873 21.336C64.1873 20.152 64.2513 18.568 64.3793 16.584L62.0753 16.392ZM95.0501 18.456C94.5701 18.456 94.1541 18.344 93.8021 18.12C93.4821 17.864 93.1461 17.528 92.7941 17.112C92.4421 16.696 92.0581 16.424 91.6421 16.296C91.2581 16.168 90.8101 16.104 90.2981 16.104C89.3701 16.104 88.4581 16.392 87.5621 16.968C86.6981 17.512 85.9781 18.28 85.4021 19.272C84.8581 20.264 84.5861 21.368 84.5861 22.584C84.5861 23.928 84.8421 25.048 85.3541 25.944C85.8981 26.84 86.7461 27.624 87.8981 28.296C88.3141 28.52 88.7941 28.696 89.3381 28.824C89.9141 28.952 90.4101 29.016 90.8261 29.016C91.8181 29.016 93.0981 28.584 94.6661 27.72C94.7941 27.656 95.0341 27.544 95.3861 27.384C95.7701 27.192 96.0581 27.096 96.2501 27.096C96.6021 27.096 97.0021 27.272 97.4501 27.624C97.8981 27.944 98.1221 28.344 98.1221 28.824C98.1221 29.784 97.7061 30.6 96.8741 31.272C96.0741 31.944 95.0661 32.44 93.8501 32.76C92.6341 33.08 91.4341 33.24 90.2501 33.24C88.3621 33.24 86.6021 32.808 84.9701 31.944C83.3381 31.08 82.0421 29.88 81.0821 28.344C80.1221 26.808 79.6421 25.08 79.6421 23.16C79.6421 21.08 80.1061 19.208 81.0341 17.544C81.9621 15.848 83.2101 14.52 84.7781 13.56C86.3781 12.568 88.1061 12.072 89.9621 12.072C91.7541 12.072 93.4021 12.424 94.9061 13.128C96.4421 13.832 97.2101 14.904 97.2101 16.344C97.2101 17.752 96.4901 18.456 95.0501 18.456ZM107.774 2.568C107.774 3.4 107.758 4.376 107.726 5.496C107.694 6.584 107.662 7.416 107.63 7.992C107.534 9.624 107.486 11.256 107.486 12.888C107.486 15.032 107.534 16.76 107.63 18.072C108.366 16.248 109.406 14.872 110.75 13.944C112.094 12.984 113.63 12.504 115.358 12.504C116.542 12.504 117.646 13.032 118.67 14.088C119.694 15.144 120.35 16.376 120.638 17.784C120.67 17.944 120.686 18.184 120.686 18.504C120.686 18.888 120.654 19.496 120.59 20.328C120.494 21 120.446 21.672 120.446 22.344C120.446 24.072 120.51 25.416 120.638 26.376C120.766 27.304 121.038 28.072 121.454 28.68C121.87 29.256 122.526 29.72 123.422 30.072C123.774 30.2 124.014 30.376 124.142 30.6C124.302 30.792 124.382 31.096 124.382 31.512C124.382 32.088 124.078 32.52 123.47 32.808C122.894 33.096 122.334 33.24 121.79 33.24C120.67 33.24 119.662 32.936 118.766 32.328C117.87 31.72 117.198 30.92 116.75 29.928C116.43 29.256 116.222 28.456 116.126 27.528C116.03 26.6 115.982 25.512 115.982 24.264L116.03 20.088C116.03 17.816 115.294 16.68 113.822 16.68C112.766 16.68 111.742 17.544 110.75 19.272C109.758 21 108.958 23.032 108.35 25.368C107.742 27.704 107.438 29.624 107.438 31.128C107.438 31.832 107.214 32.36 106.766 32.712C106.35 33.032 105.918 33.192 105.47 33.192C104.766 33.192 104.126 32.984 103.55 32.568C102.974 32.12 102.686 31.624 102.686 31.08C102.91 28.68 103.022 24.664 103.022 19.032C103.022 18.008 102.942 14.216 102.782 7.656L102.638 3.24C102.638 2.536 102.958 1.928 103.598 1.416C104.238 0.871999 104.958 0.599999 105.758 0.599999C106.462 0.599999 106.974 0.759999 107.294 1.08C107.614 1.4 107.774 1.896 107.774 2.568ZM129.961 2.184C131.081 2.28 132.057 2.584 132.889 3.096C133.721 3.576 134.137 4.312 134.137 5.304C134.137 6.04 133.785 6.632 133.081 7.08C132.409 7.496 131.593 7.704 130.633 7.704C129.705 7.704 129.065 7.464 128.713 6.984C128.361 6.504 128.185 6.008 128.185 5.496C128.185 4.536 128.281 3.736 128.473 3.096C128.697 2.456 129.193 2.152 129.961 2.184ZM133.801 23.448V24.84C133.801 26.088 133.833 27.272 133.897 28.392C133.993 29.48 134.105 30.584 134.233 31.704C134.233 32.088 134.009 32.44 133.561 32.76C133.113 33.048 132.697 33.192 132.313 33.192C131.705 33.192 131.081 33.08 130.441 32.856C129.833 32.6 129.465 32.296 129.337 31.944C129.145 30.92 129.049 30.008 129.049 29.208C129.049 26.584 128.969 23.64 128.809 20.376C128.681 17.496 128.617 15.48 128.617 14.328C128.617 13.752 128.905 13.256 129.481 12.84C130.057 12.424 130.665 12.216 131.305 12.216C132.233 12.216 132.873 12.424 133.225 12.84C133.609 13.256 133.801 13.912 133.801 14.808V23.448ZM161.682 29.304C161.842 29.368 162.098 29.448 162.45 29.544C162.802 29.64 163.058 29.736 163.218 29.832C163.378 29.928 163.458 30.072 163.458 30.264C163.49 31.032 163.202 31.672 162.594 32.184C162.018 32.664 161.33 32.904 160.53 32.904C159.282 32.904 158.306 32.568 157.602 31.896C156.898 31.224 156.386 30.2 156.066 28.824C155.938 28.28 155.874 27.528 155.874 26.568C155.874 26.024 155.906 25.144 155.97 23.928C156.034 22.648 156.066 21.624 156.066 20.856C156.066 19.736 155.746 18.76 155.106 17.928C154.498 17.064 153.634 16.632 152.514 16.632C151.842 16.632 151.138 16.84 150.402 17.256C149.666 17.64 149.154 18.12 148.866 18.696C148.386 19.624 148.05 20.632 147.858 21.72C147.506 23.64 147.33 25.64 147.33 27.72C147.33 28.712 147.346 29.48 147.378 30.024C147.378 30.152 147.378 30.408 147.378 30.792C147.41 31.144 147.378 31.48 147.282 31.8C147.218 32.088 147.09 32.36 146.898 32.616C146.738 32.776 146.482 32.904 146.13 33C145.81 33.128 145.506 33.192 145.218 33.192C144.77 33.192 144.21 33 143.538 32.616C142.866 32.232 142.482 31.8 142.386 31.32L142.338 30.504C142.338 30.216 142.37 29.88 142.434 29.496C142.818 27.256 143.01 25.304 143.01 23.64C143.01 22.904 142.994 22.328 142.962 21.912L142.914 19.656C142.914 18.888 142.722 18.152 142.338 17.448C141.954 16.712 141.506 16.344 140.994 16.344C140.834 16.344 140.61 16.408 140.322 16.536C140.034 16.632 139.794 16.68 139.602 16.68C139.282 16.68 138.93 16.52 138.546 16.2C138.194 15.88 138.018 15.544 138.018 15.192C138.018 14.52 138.242 13.976 138.69 13.56C139.17 13.176 139.634 12.872 140.082 12.648C140.562 12.424 141.106 12.312 141.714 12.312C142.226 12.312 142.642 12.36 142.962 12.456C143.282 12.552 143.714 12.76 144.258 13.08C144.546 13.24 144.882 13.592 145.266 14.136C145.65 14.68 145.97 15.448 146.226 16.44C147.058 14.904 148.082 13.832 149.298 13.224C150.546 12.584 152.13 12.264 154.05 12.264C154.786 12.264 155.57 12.504 156.402 12.984C157.266 13.464 158.002 14.024 158.61 14.664C159.186 15.368 159.666 16.248 160.05 17.304C160.434 18.328 160.626 19.256 160.626 20.088C160.626 20.568 160.594 21.352 160.53 22.44C160.434 23.304 160.386 24.216 160.386 25.176C160.386 27.416 160.818 28.792 161.682 29.304ZM185.367 20.952C185.367 22.424 184.999 23.672 184.263 24.696C183.527 25.688 182.551 26.568 181.335 27.336C179.671 28.232 177.735 28.696 175.527 28.728C175.399 29.112 175.335 29.512 175.335 29.928C175.335 30.312 175.543 30.6 175.959 30.792C176.407 30.952 177.191 31.08 178.311 31.176C179.239 31.24 180.279 31.448 181.431 31.8C182.615 32.12 183.543 32.488 184.215 32.904C185.047 33.512 185.623 34.168 185.943 34.872C186.295 35.576 186.471 36.456 186.471 37.512C186.471 38.888 185.831 40.04 184.551 40.968C183.303 41.928 181.831 42.632 180.135 43.08C178.439 43.528 176.951 43.752 175.671 43.752C174.135 43.752 172.823 43.56 171.735 43.176C170.679 42.824 169.671 42.328 168.711 41.688C168.039 41.208 167.511 40.6 167.127 39.864C166.743 39.128 166.551 38.36 166.551 37.56C166.551 36.76 166.807 35.992 167.319 35.256C167.863 34.52 168.519 33.88 169.287 33.336C170.055 32.824 170.775 32.472 171.447 32.28C171.191 31.96 170.999 31.688 170.871 31.464C170.775 31.208 170.727 30.92 170.727 30.6C170.727 29.512 170.999 28.6 171.543 27.864C170.007 27.352 168.791 26.44 167.895 25.128C167.031 23.816 166.599 22.28 166.599 20.52C166.599 19.368 166.871 18.328 167.415 17.4C167.959 16.44 168.711 15.528 169.671 14.664C171.303 13.192 173.559 12.456 176.439 12.456C176.823 12.456 177.351 12.52 178.023 12.648C178.695 12.776 179.351 12.952 179.991 13.176C181.015 12.728 182.215 12.264 183.591 11.784C184.967 11.304 185.895 11.064 186.375 11.064C187.111 11.064 187.655 11.192 188.007 11.448C188.391 11.672 188.583 12.184 188.583 12.984C188.583 13.72 188.151 14.248 187.287 14.568C186.455 14.888 185.191 15.192 183.495 15.48C184.743 16.984 185.367 18.808 185.367 20.952ZM175.383 24.792C177.239 24.792 178.583 24.408 179.415 23.64C180.279 22.872 180.711 21.72 180.711 20.184C180.711 17.656 179.223 16.392 176.247 16.392C175.095 16.392 174.183 16.52 173.511 16.776C172.871 17.032 172.343 17.464 171.927 18.072C171.351 18.84 171.063 19.88 171.063 21.192C171.063 22.216 171.479 23.08 172.311 23.784C173.175 24.456 174.199 24.792 175.383 24.792ZM171.063 37.896C171.063 38.44 171.559 38.904 172.551 39.288C173.575 39.704 174.663 39.912 175.815 39.912C177.095 39.912 178.407 39.672 179.751 39.192C181.127 38.744 181.815 38.136 181.815 37.368C181.815 36.248 180.823 35.528 178.839 35.208C178.135 35.08 177.111 34.84 175.767 34.488C175.607 34.456 175.415 34.408 175.191 34.344C174.999 34.28 174.791 34.216 174.567 34.152C173.863 34.408 173.095 34.936 172.263 35.736C171.463 36.568 171.063 37.288 171.063 37.896Z" fill="url(#paint0_linear_1672_3465)"/>
<defs>
<linearGradient id="paint0_linear_1672_3465" x1="101.5" y1="-13" x2="101.5" y2="46" gradientUnits="userSpaceOnUse">
<stop stop-color="#0EDEF1"/>
<stop offset="1" stop-color="#1CAEF0"/>
</linearGradient>
</defs>
</svg>
