<svg width="94" height="37" viewBox="0 0 94 37" fill="none" xmlns="http://www.w3.org/2000/svg">
<path d="M14.656 0.471998C16.8 0.471998 18.752 0.743999 20.512 1.288C22.272 1.8 23.712 2.568 24.832 3.592C26.848 5.416 28.256 7.416 29.056 9.592C29.888 11.736 30.304 14.488 30.304 17.848C30.304 18.936 29.792 20.76 28.768 23.32C28.192 24.44 27.584 25.32 26.944 25.96C26.336 26.6 25.392 27.368 24.112 28.264C25.2 29.992 26.048 31.176 26.656 31.816C27.296 32.488 28.016 32.824 28.816 32.824C29.072 32.824 29.264 32.808 29.392 32.776C29.488 32.744 29.632 32.728 29.824 32.728C30.272 32.728 30.624 32.872 30.88 33.16C31.168 33.48 31.312 33.848 31.312 34.264C31.312 34.488 31.248 34.728 31.12 34.984C30.992 35.24 30.816 35.432 30.592 35.56C29.984 35.944 29.456 36.184 29.008 36.28C28.56 36.408 27.744 36.472 26.56 36.472C25.312 36.472 24.192 35.912 23.2 34.792C22.24 33.704 21.232 32.184 20.176 30.232C18.8 30.744 17.408 31 16 31C9.824 31 5.424 28.888 2.8 24.664C2.064 23.48 1.488 22.248 1.072 20.968C0.688 19.688 0.496 18.44 0.496 17.224C0.496 13.96 1.072 11.112 2.224 8.68C3.408 6.248 5.04 4.376 7.12 3.064C8.336 2.296 9.616 1.672 10.96 1.192C12.336 0.711998 13.568 0.471998 14.656 0.471998ZM5.392 17.224C5.392 18.408 5.568 19.464 5.92 20.392C6.304 21.288 6.848 22.136 7.552 22.936C8.128 21.72 8.944 20.808 10 20.2C11.056 19.592 12.304 19.288 13.744 19.288C15.248 19.288 16.528 19.56 17.584 20.104C18.64 20.648 19.424 21.224 19.936 21.832C20.448 22.408 21.088 23.24 21.856 24.328C24.128 22.504 25.264 19.928 25.264 16.6C25.264 14.104 24.992 12.168 24.448 10.792C23.936 9.416 22.96 8.136 21.52 6.952C20.752 6.312 19.792 5.832 18.64 5.512C17.52 5.192 16.32 5.032 15.04 5.032C13.088 5.032 11.376 5.64 9.904 6.856C8.432 8.04 7.312 9.576 6.544 11.464C5.776 13.32 5.392 15.24 5.392 17.224ZM14.608 22.936C13.712 22.936 12.88 23.128 12.112 23.512C11.344 23.864 10.816 24.536 10.528 25.528L11.152 26.008C11.824 26.264 12.416 26.456 12.928 26.584C13.44 26.68 14.016 26.728 14.656 26.728C15.712 26.728 16.848 26.552 18.064 26.2C17.488 25.144 16.912 24.344 16.336 23.8C15.792 23.224 15.216 22.936 14.608 22.936ZM34.4133 14.824C34.1573 14.824 33.9173 14.728 33.6933 14.536C33.5013 14.312 33.4053 14.056 33.4053 13.768C33.4053 13.032 33.7253 12.344 34.3652 11.704C34.5573 11.608 34.9413 11.448 35.5173 11.224C36.0933 11 36.6053 10.888 37.0533 10.888C38.2693 10.888 39.2613 11.224 40.0293 11.896C40.7973 12.536 41.1813 13.464 41.1813 14.68C41.1813 15.032 41.1173 15.784 40.9893 16.936C40.8613 18.28 40.7973 19.32 40.7973 20.056C40.7973 22.296 41.1013 24.104 41.7093 25.48C41.9333 25.928 42.2853 26.28 42.7653 26.536C43.2453 26.792 43.6773 26.92 44.0613 26.92C44.9893 26.92 45.7413 26.76 46.3173 26.44C46.8933 26.12 47.5173 25.608 48.1893 24.904C48.8613 24.2 49.2933 23.4 49.4853 22.504C49.7093 21.608 49.8693 20.376 49.9653 18.808C50.0293 17.784 50.0933 17.032 50.1573 16.552C50.3173 15.016 50.3973 13.704 50.3973 12.616C50.3973 11.912 50.5893 11.336 50.9733 10.888C51.3573 10.408 51.8853 10.168 52.5573 10.168C52.9413 10.168 53.3733 10.296 53.8533 10.552C54.3653 10.776 54.7013 11.048 54.8613 11.368C55.0533 11.688 55.1493 12.216 55.1493 12.952C55.1493 13.336 55.1013 13.704 55.0053 14.056C54.7813 14.856 54.6693 15.816 54.6693 16.936L54.7173 19.432C54.7173 21.704 54.8773 23.384 55.1973 24.472C55.3573 24.984 55.5813 25.512 55.8693 26.056C56.1573 26.568 56.4293 27 56.6853 27.352C57.3253 28.056 57.7413 28.552 57.9333 28.84C58.1253 29.096 58.2213 29.352 58.2213 29.608C58.2213 29.992 58.0293 30.36 57.6453 30.712C57.2933 31.032 56.9093 31.192 56.4933 31.192C55.3093 31.192 54.2853 30.792 53.4213 29.992C52.5573 29.192 51.9173 28.152 51.5013 26.872C50.4133 28.12 49.4053 29.128 48.4773 29.896C47.8373 30.344 47.0533 30.68 46.1253 30.904C45.1973 31.096 44.2693 31.192 43.3413 31.192C42.0933 31.192 40.8293 30.68 39.5493 29.656C38.2693 28.632 37.4053 27.448 36.9573 26.104C36.9253 26.04 36.8293 25.784 36.6693 25.336C36.5413 24.888 36.4773 24.216 36.4773 23.32C36.4773 22.136 36.5413 20.648 36.6693 18.856C36.7653 17.704 36.8133 16.648 36.8133 15.688C36.8133 15.4 36.7013 15.16 36.4773 14.968C36.2853 14.776 36.0613 14.68 35.8053 14.68C35.6133 14.68 35.3893 14.712 35.1333 14.776C34.9093 14.808 34.6693 14.824 34.4133 14.824ZM64.3045 0.183999C65.4245 0.279998 66.4005 0.583998 67.2325 1.096C68.0645 1.576 68.4805 2.312 68.4805 3.304C68.4805 4.04 68.1285 4.632 67.4245 5.08C66.7525 5.496 65.9365 5.704 64.9765 5.704C64.0485 5.704 63.4085 5.464 63.0565 4.984C62.7045 4.504 62.5285 4.008 62.5285 3.496C62.5285 2.536 62.6245 1.736 62.8165 1.096C63.0405 0.455999 63.5365 0.151999 64.3045 0.183999ZM68.1445 21.448V22.84C68.1445 24.088 68.1765 25.272 68.2405 26.392C68.3365 27.48 68.4485 28.584 68.5765 29.704C68.5765 30.088 68.3525 30.44 67.9045 30.76C67.4565 31.048 67.0405 31.192 66.6565 31.192C66.0485 31.192 65.4245 31.08 64.7845 30.856C64.1765 30.6 63.8085 30.296 63.6805 29.944C63.4885 28.92 63.3925 28.008 63.3925 27.208C63.3925 24.584 63.3125 21.64 63.1525 18.376C63.0245 15.496 62.9605 13.48 62.9605 12.328C62.9605 11.752 63.2485 11.256 63.8245 10.84C64.4005 10.424 65.0085 10.216 65.6485 10.216C66.5765 10.216 67.2165 10.424 67.5685 10.84C67.9525 11.256 68.1445 11.912 68.1445 12.808V21.448ZM90.7458 14.584C90.0738 15.736 89.1618 16.92 88.0098 18.136C86.8578 19.352 85.3858 20.792 83.5938 22.456C81.8978 24.056 80.9538 24.968 80.7618 25.192L79.1298 26.68C79.7698 26.808 80.9698 26.872 82.7298 26.872C83.4338 26.872 84.4578 26.744 85.8018 26.488C87.0818 26.232 88.0258 26.104 88.6338 26.104C89.1458 26.104 89.7218 26.184 90.3618 26.344C91.0338 26.504 91.6578 26.744 92.2338 27.064C92.5218 27.192 92.7618 27.448 92.9538 27.832C93.1458 28.184 93.2418 28.52 93.2418 28.84C93.2418 29.256 93.0978 29.72 92.8098 30.232C92.5218 30.744 92.1858 31 91.8018 31C91.4498 31 90.9858 30.936 90.4098 30.808C89.5458 30.648 88.9378 30.568 88.5858 30.568C87.4658 30.568 85.9778 30.648 84.1218 30.808C81.5618 31 79.6738 31.096 78.4578 31.096C76.9218 31.096 75.7058 30.904 74.8098 30.52C73.9458 30.136 73.5138 29.416 73.5138 28.36C73.5138 27.56 73.9138 26.648 74.7138 25.624C75.5138 24.568 76.4898 23.464 77.6418 22.312L78.3138 21.592C78.8258 21.08 79.6898 20.312 80.9058 19.288C82.1218 18.232 83.0498 17.4 83.6898 16.792C84.3298 16.152 84.8578 15.48 85.2738 14.776L77.5938 14.824C76.3458 14.824 75.4178 14.68 74.8098 14.392C74.2338 14.104 73.9458 13.56 73.9458 12.76C73.9458 12.312 74.1058 11.896 74.4258 11.512C74.7458 11.096 75.1618 10.84 75.6738 10.744C76.8258 10.584 79.1778 10.504 82.7298 10.504C86.2818 10.504 88.7298 10.68 90.0738 11.032C90.4258 11.16 90.6978 11.4 90.8898 11.752C91.1138 12.072 91.2258 12.408 91.2258 12.76C91.2258 13.336 91.0658 13.944 90.7458 14.584Z" fill="url(#paint0_linear_1672_3467)"/>
<defs>
<linearGradient id="paint0_linear_1672_3467" x1="53" y1="-15" x2="53" y2="44" gradientUnits="userSpaceOnUse">
<stop stop-color="#0EDEF1"/>
<stop offset="1" stop-color="#1CAEF0"/>
</linearGradient>
</defs>
</svg>
