<svg width="115" height="115" viewBox="0 0 115 115" fill="none" xmlns="http://www.w3.org/2000/svg">
<path id="Vector" d="M17.1466 2.82252L57.5 43.1742L97.6443 3.0316C98.531 2.08781 99.5992 1.3328 100.785 0.811865C101.97 0.290927 103.249 0.0147853 104.544 0C107.317 0 109.976 1.10138 111.936 3.06185C113.897 5.02231 114.998 7.68128 114.998 10.4538C115.023 11.7354 114.785 13.0086 114.299 14.195C113.814 15.3815 113.091 16.4562 112.176 17.3533L71.5087 57.4959L112.176 98.1611C113.899 99.8467 114.909 102.129 114.998 104.538C114.998 107.31 113.897 109.969 111.936 111.93C109.976 113.89 107.317 114.992 104.544 114.992C103.212 115.047 101.882 114.825 100.641 114.339C99.3988 113.853 98.2716 113.114 97.3307 112.169L57.5 71.8176L17.2512 112.065C16.3679 112.977 15.3126 113.705 14.1463 114.208C12.98 114.71 11.7258 114.977 10.4559 114.992C7.6833 114.992 5.02422 113.89 3.06368 111.93C1.10313 109.969 0.00170097 107.31 0.00170097 104.538C-0.022673 103.256 0.215129 101.983 0.700514 100.797C1.1859 99.6103 1.90863 98.5355 2.82434 97.6384L43.4913 57.4959L2.82434 16.8306C1.10133 15.145 0.0909761 12.8625 0.00170097 10.4538C0.00170097 7.68128 1.10313 5.02231 3.06368 3.06185C5.02422 1.10138 7.6833 0 10.4559 0C12.965 0.0313614 15.3694 1.04538 17.1466 2.82252Z" fill="url(#paint0_linear_1672_3557)"/>
<defs>
<linearGradient id="paint0_linear_1672_3557" x1="130.678" y1="130.672" x2="-19.5962" y2="-0.00628918" gradientUnits="userSpaceOnUse">
<stop stop-color="#E80B0B"/>
<stop offset="1" stop-color="#C41414" stop-opacity="0.97"/>
</linearGradient>
</defs>
</svg>
