<svg width="37" height="33" viewBox="0 0 37 33" fill="none" xmlns="http://www.w3.org/2000/svg">
<path d="M23.5779 28.6128C25.0213 29.0308 26.5169 29.2422 28.02 29.2407C30.4372 29.2441 32.823 28.6945 34.9938 27.6339C35.0579 26.1212 34.6259 24.6288 33.7631 23.383C32.9004 22.1372 31.6539 21.2058 30.2127 20.7301C28.7714 20.2544 27.214 20.2603 25.7764 20.7468C24.3388 21.2334 23.0994 22.174 22.2461 23.4263M23.5779 28.6128V28.6077C23.5779 26.7293 23.0939 24.9622 22.2461 23.4263M23.5779 28.6128V28.7917C20.3211 30.748 16.5899 31.7787 12.7881 31.7723C8.84345 31.7723 5.15266 30.6837 2.00169 28.7917L2 28.6077C1.9987 26.2187 2.7947 23.8971 4.26251 22.009C5.73031 20.121 7.78643 18.7739 10.1067 18.1801C12.427 17.5863 14.8794 17.7795 17.0774 18.7294C19.2753 19.6793 21.0938 21.3318 22.2461 23.4263M18.5011 7.08878C18.5011 8.5995 17.8994 10.0484 16.8283 11.1166C15.7572 12.1848 14.3045 12.785 12.7898 12.785C11.275 12.785 9.82233 12.1848 8.75125 11.1166C7.68016 10.0484 7.07844 8.5995 7.07844 7.08878C7.07844 5.57805 7.68016 4.1292 8.75125 3.06096C9.82233 1.99271 11.275 1.39258 12.7898 1.39258C14.3045 1.39258 15.7572 1.99271 16.8283 3.06096C17.8994 4.1292 18.5011 5.57805 18.5011 7.08878ZM32.4622 10.8862C32.4622 12.0612 31.9941 13.1881 31.1611 14.019C30.328 14.8498 29.1981 15.3166 28.02 15.3166C26.8419 15.3166 25.712 14.8498 24.8789 14.019C24.0459 13.1881 23.5779 12.0612 23.5779 10.8862C23.5779 9.71123 24.0459 8.58435 24.8789 7.75349C25.712 6.92263 26.8419 6.45586 28.02 6.45586C29.1981 6.45586 30.328 6.92263 31.1611 7.75349C31.9941 8.58435 32.4622 9.71123 32.4622 10.8862Z" stroke="#ADADAD" stroke-width="2.2" stroke-linecap="round" stroke-linejoin="round"/>
</svg>
