<svg width="33" height="35" viewBox="0 0 33 35" fill="none" xmlns="http://www.w3.org/2000/svg">
<path id="Vector" d="M29.3333 31.1111V13.6111H3.66667V31.1111H29.3333ZM29.3333 3.88889C30.3058 3.88889 31.2384 4.29861 31.9261 5.02792C32.6137 5.75723 33 6.74638 33 7.77778V31.1111C33 32.1425 32.6137 33.1317 31.9261 33.861C31.2384 34.5903 30.3058 35 29.3333 35H3.66667C2.69421 35 1.76157 34.5903 1.07394 33.861C0.386308 33.1317 0 32.1425 0 31.1111V7.77778C0 6.74638 0.386308 5.75723 1.07394 5.02792C1.76157 4.29861 2.69421 3.88889 3.66667 3.88889H5.5V0H9.16667V3.88889H23.8333V0H27.5V3.88889H29.3333ZM22.9717 19.5611L14.8317 28.1944L9.91834 22.9833L11.8617 20.9222L14.8317 24.0722L21.0283 17.5L22.9717 19.5611Z" fill="#DAEFF6"/>
</svg>
