<svg width="33" height="33" viewBox="0 0 33 33" fill="none" xmlns="http://www.w3.org/2000/svg">
<path d="M32.5723 17.0346L17.7239 0.522604C17.0987 -0.174201 15.8976 -0.174201 15.2723 0.522604L0.423976 17.0346C0.210253 17.2717 0.0699661 17.5658 0.020174 17.8812C-0.0296181 18.1967 0.0132295 18.5198 0.143507 18.8113C0.407478 19.4073 0.998112 19.7904 1.64979 19.7904H4.94942V31.3488C4.94942 31.7867 5.12324 32.2067 5.43264 32.5164C5.74204 32.826 6.16168 33 6.59924 33H11.5487C11.9862 33 12.4059 32.826 12.7153 32.5164C13.0247 32.2067 13.1985 31.7867 13.1985 31.3488V24.744H19.7978V31.3488C19.7978 31.7867 19.9716 32.2067 20.281 32.5164C20.5904 32.826 21.01 33 21.4476 33H26.397C26.8346 33 27.2542 32.826 27.5636 32.5164C27.873 32.2067 28.0468 31.7867 28.0468 31.3488V19.7904H31.3465C31.666 19.7918 31.979 19.7001 32.2473 19.5265C32.5157 19.3529 32.7277 19.1049 32.8577 18.8127C32.9876 18.5206 33.0298 18.1969 32.9792 17.8812C32.9285 17.5654 32.7871 17.2713 32.5723 17.0346Z" fill="#DAEFF6"/>
</svg>
