<svg width="33" height="33" viewBox="0 0 33 33" fill="none" xmlns="http://www.w3.org/2000/svg">
<path d="M14.85 24.75H18.15V14.85H14.85V24.75ZM16.5 11.55C16.9675 11.55 17.3596 11.3916 17.6764 11.0748C17.9932 10.758 18.1511 10.3664 18.15 9.9C18.15 9.4325 17.9916 9.04035 17.6748 8.72355C17.358 8.40675 16.9664 8.2489 16.5 8.25C16.0325 8.25 15.6403 8.4084 15.3235 8.7252C15.0067 9.042 14.8489 9.4336 14.85 9.9C14.85 10.3675 15.0084 10.7596 15.3252 11.0764C15.642 11.3932 16.0336 11.5511 16.5 11.55ZM16.5 33C14.2175 33 12.0725 32.5666 10.065 31.6998C8.0575 30.833 6.31125 29.6576 4.82625 28.1737C3.34125 26.6887 2.1659 24.9425 1.3002 22.935C0.4345 20.9275 0.0011 18.7825 0 16.5C0 14.2175 0.4334 12.0725 1.3002 10.065C2.167 8.0575 3.34235 6.31125 4.82625 4.82625C6.31125 3.34125 8.0575 2.1659 10.065 1.3002C12.0725 0.4345 14.2175 0.0011 16.5 0C18.7825 0 20.9275 0.4334 22.935 1.3002C24.9425 2.167 26.6887 3.34235 28.1737 4.82625C29.6587 6.31125 30.8346 8.0575 31.7014 10.065C32.5682 12.0725 33.0011 14.2175 33 16.5C33 18.7825 32.5666 20.9275 31.6998 22.935C30.833 24.9425 29.6576 26.6887 28.1737 28.1737C26.6887 29.6587 24.9425 30.8346 22.935 31.7014C20.9275 32.5682 18.7825 33.0011 16.5 33ZM16.5 29.7C20.185 29.7 23.3062 28.4212 25.8637 25.8637C28.4212 23.3062 29.7 20.185 29.7 16.5C29.7 12.815 28.4212 9.69375 25.8637 7.13625C23.3062 4.57875 20.185 3.3 16.5 3.3C12.815 3.3 9.69375 4.57875 7.13625 7.13625C4.57875 9.69375 3.3 12.815 3.3 16.5C3.3 20.185 4.57875 23.3062 7.13625 25.8637C9.69375 28.4212 12.815 29.7 16.5 29.7Z" fill="#543022"/>
</svg>
