<svg width="37" height="26" viewBox="0 0 37 26" fill="none" xmlns="http://www.w3.org/2000/svg">
<path d="M25.4139 13.1423L34.8971 4.62537V21.562L25.4139 13.1423ZM13.1941 14.5846L16.5243 17.5729C17.0469 18.0319 17.7284 18.3092 18.473 18.3092H18.4992H18.5193C19.2655 18.3092 19.9469 18.0303 20.4757 17.5681L20.4711 17.5713L23.8012 14.583L33.9242 23.5701H3.07575L13.1941 14.5846ZM3.06188 2.60611H33.9427L19.1098 15.9233C18.943 16.0597 18.7365 16.1338 18.5239 16.1337H18.5023H18.4823C18.2689 16.134 18.0617 16.0593 17.8949 15.9218L17.8964 15.9233L3.06188 2.60611ZM2.10446 4.62378L11.5861 13.1407L2.10446 21.5556V4.62378ZM35.4058 0.733474C35.0358 0.542225 34.6011 0.430664 34.1401 0.430664H2.86608C2.41922 0.430774 1.97851 0.538258 1.57873 0.74463L1.59569 0.736661C1.1171 0.980679 0.714049 1.35818 0.432077 1.82653C0.150104 2.29487 0.000443014 2.8354 0 3.38704L0 22.786C0.000816198 23.5711 0.302877 24.3237 0.839905 24.8789C1.37693 25.434 2.10506 25.7463 2.86454 25.7471H34.1355C34.8949 25.7463 35.6231 25.434 36.1601 24.8789C36.6971 24.3237 36.9992 23.5711 37 22.786V3.38704C37 2.2284 36.354 1.22434 35.4136 0.741442L35.3966 0.733474H35.4058Z" fill="#ADADAD"/>
</svg>
