<svg width="33" height="32" viewBox="0 0 33 32" fill="none" xmlns="http://www.w3.org/2000/svg">
<g id="Group 57">
<path id="Vector" d="M28.0024 4.0011H28.0002L31.5733 4.71528C31.7652 4.75366 31.9229 4.89436 31.9783 5.0841C32.0063 5.17627 32.0088 5.2743 31.9856 5.36777C31.9623 5.46124 31.9141 5.54666 31.8462 5.61494L28.9191 8.54415C28.5689 8.89371 28.0943 9.09 27.5995 9.08991H25.1734L19.0762 15.1892C19.1925 15.6285 19.2139 16.0874 19.1389 16.5355C19.064 16.9837 18.8944 17.4107 18.6414 17.7881C18.3885 18.1656 18.058 18.4848 17.672 18.7245C17.2861 18.9642 16.8534 19.1189 16.403 19.1783C15.9525 19.2377 15.4946 19.2004 15.0597 19.069C14.6247 18.9375 14.2228 18.7149 13.8807 18.4159C13.5386 18.1169 13.2641 17.7485 13.0755 17.3351C12.8869 16.9217 12.7886 16.4729 12.7871 16.0185C12.7874 15.528 12.9005 15.0441 13.1177 14.6042C13.3348 14.1643 13.6502 13.7802 14.0395 13.4816C14.4287 13.1831 14.8814 12.978 15.3625 12.8822C15.8436 12.7865 16.3403 12.8026 16.8142 12.9294L22.9136 6.82798V4.40403C22.9136 3.90943 23.1097 3.43402 23.4593 3.08439L26.3885 0.155182C26.4568 0.0872363 26.5422 0.0390653 26.6357 0.0157913C26.7292 -0.00748283 26.8272 -0.00498989 26.9194 0.023005C27.1091 0.078434 27.2498 0.236193 27.2882 0.428063L28.0024 4.0011Z" fill="#DAEFF6"/>
<path id="Vector_2" d="M3.19094 16.0191C3.19313 17.8482 3.58757 19.6555 4.34764 21.3192C5.10771 22.9829 6.21573 24.4642 7.59697 25.6632C8.97821 26.8623 10.6005 27.7512 12.3545 28.2699C14.1085 28.7886 15.9533 28.9252 17.7645 28.6703C19.5758 28.4155 21.3113 27.7751 22.854 26.7925C24.3967 25.8099 25.7108 24.5079 26.7075 22.9742C27.7042 21.4406 28.3604 19.711 28.6319 17.9022C28.9034 16.0934 28.7837 14.2474 28.2811 12.4887C28.2105 12.2832 28.1825 12.0656 28.1988 11.8489C28.215 11.6323 28.2752 11.4212 28.3756 11.2286C28.476 11.0359 28.6146 10.8657 28.7829 10.7284C28.9512 10.591 29.1457 10.4893 29.3545 10.4295C29.5633 10.3697 29.7822 10.353 29.9977 10.3804C30.2132 10.4079 30.4209 10.4789 30.608 10.5892C30.7952 10.6995 30.958 10.8467 31.0864 11.0219C31.2149 11.1971 31.3064 11.3966 31.3553 11.6082C32.3285 15.014 32.1437 18.6465 30.8297 21.9358C29.5157 25.2251 27.1469 27.9852 24.095 29.783C21.043 31.5808 17.4806 32.3146 13.9667 31.8693C10.4527 31.4239 7.18597 29.8247 4.679 27.3224C2.17476 24.816 0.573789 21.549 0.127433 18.0342C-0.318923 14.5194 0.414617 10.9559 2.21288 7.90318C4.01115 4.85045 6.77231 2.48135 10.0629 1.16785C13.3534 -0.145652 16.987 -0.329176 20.3931 0.646091C20.7987 0.764649 21.1409 1.03893 21.3448 1.40899C21.5488 1.77905 21.598 2.2148 21.4816 2.62102C21.3653 3.02723 21.0929 3.37088 20.7239 3.57686C20.355 3.78283 19.9195 3.83439 19.5127 3.72027C17.608 3.17379 15.6024 3.07722 13.6541 3.43815C11.7057 3.79908 9.86781 4.60766 8.28528 5.80013C6.70275 6.99261 5.41885 8.53639 4.5348 10.3098C3.65075 12.0831 3.1907 14.0376 3.19094 16.0191Z" fill="#DAEFF6"/>
<path id="Vector_3" d="M9.58947 16.0158C9.5896 17.1811 9.90787 18.3242 10.5099 19.3218C11.112 20.3195 11.9751 21.1339 13.006 21.6771C14.0369 22.2203 15.1965 22.4717 16.3598 22.4043C17.5232 22.3368 18.646 21.953 19.6072 21.2943C20.5682 20.634 21.3305 19.7234 21.8114 18.6612C22.2924 17.5989 22.4738 16.4254 22.336 15.2675C22.2988 14.9865 22.3371 14.7007 22.447 14.4394C22.5569 14.1782 22.7345 13.9509 22.9614 13.7811C23.1883 13.6113 23.4564 13.505 23.7381 13.4732C24.0197 13.4415 24.3048 13.4854 24.5638 13.6004C24.8228 13.7139 25.0471 13.894 25.2138 14.1225C25.3804 14.3509 25.4835 14.6195 25.5125 14.9008C25.7442 16.8794 25.3541 18.8811 24.3965 20.6279C23.4389 22.3748 21.9612 23.7802 20.1686 24.6491C18.376 25.5181 16.3573 25.8074 14.3928 25.4769C12.4283 25.1465 10.6154 24.2127 9.20565 22.8051C7.79595 21.3975 6.85938 19.586 6.52596 17.622C6.19254 15.658 6.47879 13.6389 7.34499 11.845C8.21119 10.051 9.61437 8.57122 11.3598 7.61097C13.1052 6.65071 15.1062 6.25762 17.0852 6.48626C17.2971 6.50592 17.5029 6.56768 17.6906 6.66793C17.8784 6.76817 18.0442 6.90488 18.1784 7.07004C18.3126 7.2352 18.4125 7.42549 18.4722 7.62976C18.5319 7.83402 18.5502 8.04814 18.5261 8.25958C18.5019 8.47102 18.4359 8.67551 18.3317 8.86108C18.2275 9.04664 18.0873 9.20954 17.9194 9.34023C17.7514 9.47092 17.5591 9.56676 17.3536 9.62215C17.1481 9.67753 16.9336 9.69134 16.7228 9.66277C15.8266 9.55872 14.9186 9.64543 14.0584 9.9172C13.1982 10.189 12.4052 10.6397 11.7315 11.2397C11.0578 11.8397 10.5187 12.5754 10.1495 13.3986C9.78031 14.2217 9.58947 15.1136 9.58947 16.0158Z" fill="#DAEFF6"/>
</g>
</svg>
