<svg width="28" height="31" viewBox="0 0 28 31" fill="none" xmlns="http://www.w3.org/2000/svg">
<g id="Vector" filter="url(#filter0_d_1701_5028)">
<path d="M23 15.5C23.0007 15.7742 22.9294 16.044 22.7932 16.283C22.657 16.522 22.4605 16.7221 22.2227 16.8639L7.48727 25.7622C7.23884 25.9124 6.9543 25.9944 6.66303 25.9997C6.37177 26.005 6.08435 25.9335 5.83045 25.7925C5.57898 25.6537 5.36949 25.4513 5.22353 25.2061C5.07758 24.9609 5.00042 24.6817 5 24.3973V6.60269C5.00042 6.31828 5.07758 6.03911 5.22353 5.79389C5.36949 5.54868 5.57898 5.34626 5.83045 5.20747C6.08435 5.06648 6.37177 4.99495 6.66303 5.00028C6.9543 5.0056 7.23884 5.08758 7.48727 5.23775L22.2227 14.1361C22.4605 14.2779 22.657 14.478 22.7932 14.717C22.9294 14.956 23.0007 15.2258 23 15.5Z" fill="#F2EEEE"/>
</g>
<defs>
<filter id="filter0_d_1701_5028" x="0" y="0" width="28" height="31" filterUnits="userSpaceOnUse" color-interpolation-filters="sRGB">
<feFlood flood-opacity="0" result="BackgroundImageFix"/>
<feColorMatrix in="SourceAlpha" type="matrix" values="0 0 0 0 0 0 0 0 0 0 0 0 0 0 0 0 0 0 127 0" result="hardAlpha"/>
<feOffset/>
<feGaussianBlur stdDeviation="2.5"/>
<feComposite in2="hardAlpha" operator="out"/>
<feColorMatrix type="matrix" values="0 0 0 0 0 0 0 0 0 0 0 0 0 0 0 0 0 0 0.25 0"/>
<feBlend mode="normal" in2="BackgroundImageFix" result="effect1_dropShadow_1701_5028"/>
<feBlend mode="normal" in="SourceGraphic" in2="effect1_dropShadow_1701_5028" result="shape"/>
</filter>
</defs>
</svg>
