<svg width="42" height="42" viewBox="0 0 42 42" fill="none" xmlns="http://www.w3.org/2000/svg">
<g id="Group">
<path id="Vector" d="M6.99806 19.249C7.4441 19.2495 7.87312 19.4203 8.19746 19.7265C8.52179 20.0327 8.71697 20.4512 8.74311 20.8965C8.76925 21.3417 8.62438 21.7802 8.3381 22.1222C8.05182 22.4643 7.64573 22.6841 7.20281 22.7368L6.99806 22.749H5.24806C4.80202 22.7485 4.373 22.5777 4.04867 22.2715C3.72433 21.9653 3.52915 21.5469 3.50301 21.1016C3.47687 20.6563 3.62174 20.2179 3.90802 19.8758C4.19431 19.5338 4.60039 19.314 5.04331 19.2613L5.24806 19.249H6.99806ZM20.9981 3.49902C21.4267 3.49908 21.8404 3.65645 22.1607 3.94128C22.481 4.2261 22.6857 4.61858 22.7358 5.04427L22.7481 5.24902V6.99902C22.7476 7.44506 22.5768 7.87408 22.2706 8.19842C21.9644 8.52276 21.5459 8.71793 21.1006 8.74407C20.6553 8.77021 20.2169 8.62534 19.8749 8.33906C19.5328 8.05278 19.313 7.64669 19.2603 7.20377L19.2481 6.99902V5.24902C19.2481 4.78489 19.4324 4.33978 19.7606 4.01159C20.0888 3.6834 20.5339 3.49902 20.9981 3.49902ZM36.7481 19.249C37.1941 19.2495 37.6231 19.4203 37.9475 19.7265C38.2718 20.0327 38.467 20.4512 38.4931 20.8965C38.5193 21.3417 38.3744 21.7802 38.0881 22.1222C37.8018 22.4643 37.3957 22.6841 36.9528 22.7368L36.7481 22.749H34.9981C34.552 22.7485 34.123 22.5777 33.7987 22.2715C33.4743 21.9653 33.2792 21.5469 33.253 21.1016C33.2269 20.6563 33.3717 20.2179 33.658 19.8758C33.9443 19.5338 34.3504 19.314 34.7933 19.2613L34.9981 19.249H36.7481ZM8.56081 8.56177C8.86215 8.26046 9.26307 8.07946 9.68837 8.05272C10.1137 8.02598 10.5341 8.15533 10.8708 8.41652L11.0353 8.56177L12.2603 9.78677C12.5742 10.1017 12.7564 10.5243 12.77 10.9687C12.7835 11.4131 12.6274 11.846 12.3334 12.1795C12.0393 12.513 11.6293 12.7221 11.1867 12.7642C10.7441 12.8064 10.302 12.6785 9.95031 12.4065L9.78581 12.2613L8.56081 11.0363C8.23274 10.7081 8.04844 10.2631 8.04844 9.79902C8.04844 9.33499 8.23274 8.88995 8.56081 8.56177ZM30.9608 8.56177C31.2757 8.24791 31.6983 8.06569 32.1427 8.05212C32.5871 8.03855 33.0201 8.19465 33.3535 8.48871C33.687 8.78277 33.8961 9.19274 33.9383 9.63535C33.9804 10.078 33.8525 10.52 33.5806 10.8718L33.4353 11.0363L32.2103 12.2613C31.8954 12.5751 31.4728 12.7574 31.0284 12.7709C30.584 12.7845 30.1511 12.6284 29.8176 12.3343C29.4841 12.0403 29.275 11.6303 29.2329 11.1877C29.1907 10.7451 29.3186 10.303 29.5906 9.95127L29.7358 9.78677L30.9608 8.56177ZM24.4981 31.499C24.9622 31.499 25.4073 31.6834 25.7355 32.0116C26.0637 32.3398 26.2481 32.7849 26.2481 33.249C26.2481 34.6414 25.6949 35.9768 24.7104 36.9613C23.7258 37.9459 22.3904 38.499 20.9981 38.499C19.6057 38.499 18.2703 37.9459 17.2858 36.9613C16.3012 35.9768 15.7481 34.6414 15.7481 33.249C15.7481 32.8204 15.9055 32.4067 16.1903 32.0864C16.4751 31.7661 16.8676 31.5614 17.2933 31.5113L17.4981 31.499H24.4981ZM20.9981 10.499C23.2018 10.499 25.3497 11.1924 27.1375 12.481C28.9253 13.7695 30.2623 15.588 30.9592 17.6786C31.6561 19.7693 31.6775 22.0263 31.0205 24.1298C30.3634 26.2333 29.0611 28.0768 27.2981 29.399C27.0569 29.5802 26.7729 29.6959 26.4738 29.735L26.2481 29.749H15.7481C15.3694 29.749 15.001 29.6262 14.6981 29.399C12.935 28.0768 11.6328 26.2333 10.9757 24.1298C10.3186 22.0263 10.34 19.7693 11.0369 17.6786C11.7338 15.588 13.0708 13.7695 14.8586 12.481C16.6464 11.1924 18.7943 10.499 20.9981 10.499Z" fill="#DAEFF6"/>
</g>
</svg>
