<svg width="33" height="34" viewBox="0 0 33 34" fill="none" xmlns="http://www.w3.org/2000/svg">
<path d="M28.8021 16.4979V16.7933C28.8021 16.8918 28.8075 16.9903 28.8183 17.0887V17.3842C28.8183 17.4827 28.8129 17.5811 28.8021 17.6796L33 20.3222L30.4229 26.6085L25.609 25.4924C25.3497 25.7769 25.0796 26.0505 24.7986 26.3131L25.9008 31.1879L19.693 33.7976L17.0835 29.5465H16.7917C16.6945 29.5465 16.5972 29.552 16.5 29.5629H16.2083C16.111 29.5629 16.0138 29.5575 15.9165 29.5465L13.307 33.7976L7.09921 31.1879L8.20138 26.3131C7.92043 26.0505 7.65029 25.7769 7.39096 25.4924L2.57711 26.6085L0 20.3222L4.19794 17.6796V17.3842C4.19794 17.2857 4.19253 17.1872 4.18173 17.0887V16.7933C4.18173 16.6948 4.18713 16.5963 4.19794 16.4979L0 13.8553L2.57711 7.56896L7.39096 8.68507C7.65029 8.40057 7.92043 8.12702 8.20138 7.8644L7.09921 2.98962L13.307 0.379883L15.9165 4.63096H16.2083C16.3055 4.63096 16.4028 4.62549 16.5 4.61454H16.7917C16.889 4.61454 16.9862 4.62002 17.0835 4.63096L19.693 0.379883L25.9008 2.98962L24.7986 7.8644C25.0796 8.12702 25.3497 8.40057 25.609 8.68507L30.4229 7.56896L33 13.8553L28.8021 16.4979ZM26.9057 18.6316C26.9273 18.369 26.9489 18.1118 26.9705 17.8602C26.9921 17.6085 27.0029 17.3459 27.0029 17.0723C27.0029 16.8207 26.9921 16.5635 26.9705 16.3009C26.9489 16.0383 26.9273 15.7811 26.9057 15.5295L30.7308 13.1167L29.3369 9.7027L24.9445 10.7367C24.6095 10.3209 24.2692 9.93796 23.9234 9.58781C23.5776 9.23766 23.194 8.8875 22.7726 8.53735L23.7937 4.08932L20.4224 2.67776L18.0236 6.55133C17.775 6.52944 17.5211 6.50756 17.2618 6.48567C17.0025 6.46379 16.7485 6.45285 16.5 6.45285C16.2407 6.45285 15.9867 6.46379 15.7382 6.48567C15.4897 6.50756 15.2304 6.52944 14.9602 6.55133L12.5776 2.67776L9.20629 4.08932L10.2274 8.53735C9.8168 8.87656 9.43861 9.22124 9.09283 9.5714C8.74705 9.92155 8.40128 10.31 8.0555 10.7367L3.66306 9.7027L2.26916 13.1167L6.0943 15.5459C6.07269 15.8085 6.05108 16.0656 6.02947 16.3173C6.00786 16.569 5.99705 16.8316 5.99705 17.1052C5.99705 17.3568 6.00786 17.614 6.02947 17.8766C6.05108 18.1392 6.07269 18.3963 6.0943 18.648L2.26916 21.0608L3.66306 24.4748L8.0555 23.4407C8.39047 23.8565 8.73085 24.2395 9.07662 24.5897C9.4224 24.9398 9.80599 25.29 10.2274 25.6401L9.20629 30.0882L12.5776 31.4997L14.9764 27.6262C15.225 27.648 15.4789 27.6699 15.7382 27.6918C15.9975 27.7137 16.2515 27.7246 16.5 27.7246C16.7593 27.7246 17.0133 27.7137 17.2618 27.6918C17.5103 27.6699 17.7696 27.648 18.0398 27.6262L20.4224 31.4997L23.7937 30.0882L22.7726 25.6401C23.1832 25.3009 23.5614 24.9562 23.9072 24.6061C24.2529 24.2559 24.5987 23.8675 24.9445 23.4407L29.3369 24.4748L30.7308 21.0608L26.9057 18.6316ZM16.5 10.9173C17.3428 10.9173 18.1316 11.076 18.8664 11.3933C19.6012 11.7106 20.2495 12.1538 20.8114 12.7228C21.3733 13.2918 21.8055 13.9428 22.1081 14.676C22.4106 15.4091 22.5727 16.2134 22.5943 17.0887C22.5943 17.9422 22.4376 18.741 22.1243 19.4851C21.8109 20.2292 21.3733 20.8857 20.8114 21.4547C20.2495 22.0237 19.6066 22.4614 18.8826 22.7678C18.1586 23.0742 17.3644 23.2383 16.5 23.2602C15.6572 23.2602 14.8684 23.1015 14.1336 22.7842C13.3988 22.4669 12.7505 22.0237 12.1886 21.4547C11.6267 20.8857 11.1945 20.2346 10.8919 19.5015C10.5894 18.7684 10.4273 17.9641 10.4057 17.0887C10.4057 16.2352 10.5624 15.4365 10.8757 14.6924C11.1891 13.9483 11.6267 13.2918 12.1886 12.7228C12.7505 12.1538 13.3934 11.7161 14.1174 11.4097C14.8414 11.1033 15.6356 10.9392 16.5 10.9173ZM16.5 21.4219C17.0943 21.4219 17.6508 21.3125 18.1695 21.0936C18.6881 20.8748 19.1419 20.5629 19.5309 20.1581C19.9199 19.7532 20.2225 19.2936 20.4386 18.7793C20.6547 18.265 20.7682 17.7015 20.779 17.0887C20.779 16.4869 20.6709 15.9234 20.4548 15.3982C20.2387 14.8729 19.9307 14.4134 19.5309 14.0194C19.1311 13.6255 18.6773 13.3191 18.1695 13.1003C17.6616 12.8814 17.1051 12.7665 16.5 12.7556C15.9057 12.7556 15.3492 12.865 14.8306 13.0839C14.3119 13.3027 13.8581 13.6146 13.4691 14.0194C13.0801 14.4243 12.7775 14.8839 12.5614 15.3982C12.3453 15.9124 12.2318 16.476 12.221 17.0887C12.221 17.6906 12.3291 18.2541 12.5452 18.7793C12.7613 19.3046 13.0693 19.7641 13.4691 20.1581C13.8689 20.552 14.3227 20.8584 14.8306 21.0772C15.3384 21.296 15.8949 21.4109 16.5 21.4219Z" fill="#ADADAD"/>
</svg>
