<svg width="32" height="32" viewBox="0 0 32 32" fill="none" xmlns="http://www.w3.org/2000/svg">
<path id="Vector" d="M9.59967 25.6C7.83973 25.6 6.41578 27.04 6.41578 28.8C6.41578 30.56 7.83973 32 9.59967 32C11.3596 32 12.7996 30.56 12.7996 28.8C12.7996 27.04 11.3596 25.6 9.59967 25.6ZM0 0V3.2H3.19989L8.95969 15.344L6.79977 19.264C6.54378 19.712 6.39978 20.24 6.39978 20.8C6.39978 22.56 7.83973 24 9.59967 24H28.799V20.8H10.2716C10.0477 20.8 9.87166 20.624 9.87166 20.4L9.91966 20.208L11.3596 17.6H23.2792C24.4792 17.6 25.5351 16.944 26.0791 15.952L31.8069 5.568C31.9389 5.32382 32.0053 5.04957 31.9997 4.77205C31.994 4.49452 31.9165 4.22321 31.7746 3.98462C31.6327 3.74603 31.4314 3.54832 31.1903 3.41079C30.9492 3.27327 30.6765 3.20064 30.399 3.2H6.73577L5.23182 0H0ZM25.5991 25.6C23.8392 25.6 22.4152 27.04 22.4152 28.8C22.4152 30.56 23.8392 32 25.5991 32C27.3591 32 28.799 30.56 28.799 28.8C28.799 27.04 27.3591 25.6 25.5991 25.6Z" fill="#DAEFF6"/>
</svg>
