<svg width="19" height="19" viewBox="0 0 19 19" fill="none" xmlns="http://www.w3.org/2000/svg">
<path d="M1 9.5H1.94444M9.5 1V1.94444M17.0556 9.5H18M3.45556 3.45556L4.11667 4.11667M15.5444 3.45556L14.8833 4.11667M7.32778 14.2222H11.6722M6.66667 13.2778C5.87378 12.6831 5.28809 11.854 4.99257 10.908C4.69706 9.96198 4.70669 8.94695 5.02011 8.0067C5.33352 7.06645 5.93484 6.24865 6.73887 5.66913C7.5429 5.08962 8.50889 4.77778 9.5 4.77778C10.4911 4.77778 11.4571 5.08962 12.2611 5.66913C13.0652 6.24865 13.6665 7.06645 13.9799 8.0067C14.2933 8.94695 14.3029 9.96198 14.0074 10.908C13.7119 11.854 13.1262 12.6831 12.3333 13.2778C11.9646 13.6428 11.687 14.0895 11.5229 14.5817C11.3588 15.0739 11.3129 15.5979 11.3889 16.1111C11.3889 16.6121 11.1899 17.0925 10.8356 17.4468C10.4814 17.801 10.001 18 9.5 18C8.99904 18 8.51859 17.801 8.16435 17.4468C7.81012 17.0925 7.61111 16.6121 7.61111 16.1111C7.6871 15.5979 7.6412 15.0739 7.47712 14.5817C7.31305 14.0895 7.03541 13.6428 6.66667 13.2778Z" stroke="#E3EDFF" stroke-opacity="0.9" stroke-width="2" stroke-linecap="round" stroke-linejoin="round"/>
</svg>
