<svg width="21" height="21" viewBox="0 0 21 21" fill="none" xmlns="http://www.w3.org/2000/svg">
<path d="M1 10.5H2.05556M10.5 1V2.05556M18.9444 10.5H20M3.74444 3.74444L4.48333 4.48333M17.2556 3.74444L16.5167 4.48333M8.07222 15.7778H12.9278M7.33333 14.7222C6.44716 14.0576 5.79257 13.131 5.46229 12.0737C5.13201 11.0163 5.14277 9.88189 5.49306 8.83102C5.84335 7.78015 6.51541 6.86614 7.41403 6.21844C8.31265 5.57075 9.39229 5.22222 10.5 5.22222C11.6077 5.22222 12.6873 5.57075 13.586 6.21844C14.4846 6.86614 15.1566 7.78015 15.5069 8.83102C15.8572 9.88189 15.868 11.0163 15.5377 12.0737C15.2074 13.131 14.5528 14.0576 13.6667 14.7222C13.2545 15.1302 12.9442 15.6294 12.7609 16.1795C12.5775 16.7297 12.5262 17.3153 12.6111 17.8889C12.6111 18.4488 12.3887 18.9858 11.9928 19.3817C11.5969 19.7776 11.0599 20 10.5 20C9.9401 20 9.40313 19.7776 9.00722 19.3817C8.61131 18.9858 8.38889 18.4488 8.38889 17.8889C8.47381 17.3153 8.42251 16.7297 8.23914 16.1795C8.05576 15.6294 7.74546 15.1302 7.33333 14.7222Z" stroke="#F2D7C0" stroke-opacity="0.9" stroke-width="2" stroke-linecap="round" stroke-linejoin="round"/>
</svg>
