<svg width="137" height="137" viewBox="0 0 137 137" fill="none" xmlns="http://www.w3.org/2000/svg">
<path fill-rule="evenodd" clip-rule="evenodd" d="M68.5 124.545C75.86 124.545 83.1479 123.096 89.9477 120.279C96.7474 117.463 102.926 113.334 108.13 108.13C113.334 102.926 117.463 96.7474 120.279 89.9477C123.096 83.1479 124.545 75.86 124.545 68.5C124.545 61.14 123.096 53.8521 120.279 47.0523C117.463 40.2526 113.334 34.0742 108.13 28.8699C102.926 23.6656 96.7474 19.5373 89.9477 16.7208C83.1479 13.9042 75.86 12.4545 68.5 12.4545C53.6358 12.4545 39.3804 18.3593 28.8699 28.8699C18.3593 39.3804 12.4545 53.6358 12.4545 68.5C12.4545 83.3642 18.3593 97.6196 28.8699 108.13C39.3804 118.641 53.6358 124.545 68.5 124.545ZM68.5 137C106.331 137 137 106.331 137 68.5C137 30.6693 106.331 0 68.5 0C30.6693 0 0 30.6693 0 68.5C0 106.331 30.6693 137 68.5 137Z" fill="#D7E9FA"/>
<path d="M93.4095 68.4988L56.0459 95.4628V41.5347L93.4095 68.4988Z" fill="#D7E9FA"/>
</svg>
